<?xml version="1.0" encoding="UTF-8" standalone="no"?>
<!-- Created with Inkscape (http://www.inkscape.org/) -->

<svg
   xmlns:dc="http://purl.org/dc/elements/1.1/"
   xmlns:cc="http://creativecommons.org/ns#"
   xmlns:rdf="http://www.w3.org/1999/02/22-rdf-syntax-ns#"
   xmlns:svg="http://www.w3.org/2000/svg"
   xmlns="http://www.w3.org/2000/svg"
   xmlns:sodipodi="http://sodipodi.sourceforge.net/DTD/sodipodi-0.dtd"
   xmlns:inkscape="http://www.inkscape.org/namespaces/inkscape"
   width="300"
   height="300"
   id="svg3005"
   version="1.1"
   inkscape:version="0.91 r"
   sodipodi:docname="flower_19a.svg">
  <title
     id="title3478">Flower</title>
  <defs
     id="defs3007" />
  <sodipodi:namedview
     id="base"
     pagecolor="#ffffff"
     bordercolor="#666666"
     borderopacity="1.0"
     inkscape:pageopacity="0.0"
     inkscape:pageshadow="2"
     inkscape:zoom="2.0366667"
     inkscape:cx="150"
     inkscape:cy="150"
     inkscape:document-units="px"
     inkscape:current-layer="layer1"
     showgrid="false"
     inkscape:window-width="1215"
     inkscape:window-height="776"
     inkscape:window-x="65"
     inkscape:window-y="24"
     inkscape:window-maximized="1" />
  <metadata
     id="metadata3010">
    <rdf:RDF>
      <cc:Work
         rdf:about="">
        <dc:format>image/svg+xml</dc:format>
        <dc:type
           rdf:resource="http://purl.org/dc/dcmitype/StillImage" />
        <dc:title>Flower</dc:title>
        <dc:date>julho 2015</dc:date>
        <dc:creator>
          <cc:Agent>
            <dc:title>jpenrici</dc:title>
          </cc:Agent>
        </dc:creator>
        <dc:publisher>
          <cc:Agent>
            <dc:title>Open Clip Art Library</dc:title>
          </cc:Agent>
        </dc:publisher>
        <cc:license
           rdf:resource="http://creativecommons.org/publicdomain/zero/1.0/" />
        <dc:subject>
          <rdf:Bag>
            <rdf:li>plant</rdf:li>
            <rdf:li>flora</rdf:li>
            <rdf:li>nature</rdf:li>
            <rdf:li>clip art</rdf:li>
            <rdf:li>clipart</rdf:li>
            <rdf:li>svg</rdf:li>
          </rdf:Bag>
        </dc:subject>
      </cc:Work>
      <cc:License
         rdf:about="http://creativecommons.org/publicdomain/zero/1.0/">
        <cc:permits
           rdf:resource="http://creativecommons.org/ns#Reproduction" />
        <cc:permits
           rdf:resource="http://creativecommons.org/ns#Distribution" />
        <cc:permits
           rdf:resource="http://creativecommons.org/ns#DerivativeWorks" />
      </cc:License>
    </rdf:RDF>
  </metadata>
  <g
     inkscape:label="Camada 1"
     inkscape:groupmode="layer"
     id="layer1"
     transform="translate(0,-752.36218)">
    <g
       id="g4170"
       transform="translate(5.118092e-7,-7.4467054)">
      <path
         style="fill:#6e843b;fill-opacity:1;fill-rule:evenodd;stroke:none;stroke-width:0.5;stroke-linecap:butt;stroke-linejoin:miter;stroke-miterlimit:4;stroke-dasharray:none;stroke-opacity:1"
         d="m 81.094305,852.45724 c 22.363975,43.02556 58.477535,84.6238 69.533205,128.82422 -7.80827,-24.91548 -22.66803,-48.49227 -68.429689,-62.69141 20.497029,47.03362 83.672949,73.86332 68.595709,124.62695 6.44674,-3.299 12.1716,-13.4502 15.83789,-11.041 -17.19124,-43.63256 38.00124,-85.94201 60.17382,-128.51954 -53.11848,21.1709 -62.07896,51.66249 -67.28515,81.80078 -8.46265,-42.70922 1.91061,-83.68893 -78.425785,-133 z"
         id="path4369"
         inkscape:connector-curvature="0"
         sodipodi:nodetypes="cccccccc" />
      <g
         inkscape:transform-center-y="-100.5626"
         inkscape:transform-center-x="33.497483"
         transform="matrix(-0.99913457,0.04159465,0.04159465,0.99913457,264.93658,-32.639769)"
         id="g3925">
        <path
           style="fill:#12140a;fill-opacity:1;fill-rule:evenodd;stroke:none;stroke-width:0.5;stroke-linecap:butt;stroke-linejoin:round;stroke-miterlimit:4;stroke-dasharray:none;stroke-opacity:1"
           d="m 184.42862,799.91699 c -3.51489,3.7836 -8.32311,6.62364 -10.44922,11.41992 -2.44003,1.43007 -3.71432,-0.30492 -5.50976,-0.625 -2.38012,1.68027 -4.52751,4.51106 -6.29688,7.41797 -2.07069,0.3253 -3.77694,0.97223 -5.29883,3.12305 -0.0612,-4.48107 -2.94861,-9.07902 -6.05468,-13.6875 -2.31716,0.52573 -3.41762,-0.65731 -4.53711,-1.81055 -3.68053,4.64084 -2.68043,13.16161 -3.95703,20.26367 1.27163,11.53536 -3.06606,24.16041 -4.14454,36.32031 -1.19017,7.6424 -1.26459,14.92248 1.54102,21.26368 0.28771,10.0531 10.62662,12.54634 16.99414,18.02734 1.4488,-0.7545 2.77716,1.03196 4.10547,2.81836 -0.0984,-1.33068 0.0367,-2.55921 1.08008,-3.39258 0.29829,0.3809 0.60282,0.7244 0.91992,1.00781 0.29946,0.795 -0.76123,1.76785 1.24414,2.33985 0,0 2.43052,-0.30068 3.55273,-0.73828 1.59603,-0.6224 2.73229,-2.12696 4.375,-2.62696 2.31071,-0.7033 4.02543,0.0585 7.25782,-0.38867 4.00978,-2.5174 8.26663,-3.1817 11.5957,-10.7832 6.98375,-4.3443 9.78433,-31.97839 11.43164,-60.3125 -0.5522,-4.99329 -2.46766,-9.68663 -6.4082,-14.11524 -1.41133,0.82028 -2.77485,1.67043 -4.09375,2.54297 -0.22178,-6.06566 -2.1839,-12.09692 -7.34766,-18.06445 z"
           id="path3927"
           inkscape:connector-curvature="0" />
        <g
           style="stroke:none"
           id="g3929"
           transform="matrix(0.66109515,-0.04880146,0.04880146,0.66109515,8.3640878,269.69729)"
           inkscape:transform-center-x="-19.13161"
           inkscape:transform-center-y="-99.641346">
          <g
             style="stroke:none"
             transform="matrix(1.116168,0,0,1.0525235,-9.0803833,-41.125733)"
             id="g3931">
            <g
               style="stroke:none"
               id="g3933"
               transform="translate(-0.37584823,-1.2027172)">
              <path
                 sodipodi:nodetypes="ccccccc"
                 inkscape:connector-curvature="0"
                 id="path3935"
                 d="m 154.09276,855.91441 27.00491,5.64648 c 7.25739,-4.33257 14.51324,-8.66978 20.62193,-16.44845 0.38399,-8.82538 -1.63545,-17.78809 -8.10147,-27.0049 -5.11406,5.03728 -11.87803,8.58964 -15.22095,15.22095 -3.43112,1.78664 -4.97682,-0.82605 -7.36498,-1.473 -9.18982,5.85538 -16.93944,24.05892 -16.93944,24.05892 z"
                 style="fill:#df1d2a;fill-opacity:1;fill-rule:evenodd;stroke:none;stroke-width:0.5;stroke-linecap:butt;stroke-linejoin:round;stroke-miterlimit:4;stroke-dasharray:none;stroke-opacity:1" />
              <path
                 sodipodi:nodetypes="cccccccc"
                 inkscape:connector-curvature="0"
                 id="path3937"
                 d="m 169.63761,844.03459 1.79617,-5.35057 c 1.33991,-1.15215 0.49753,-3.06522 -0.25171,-4.94582 4.3168,0.30202 8.60038,4.02011 9.70802,7.20748 l 13.14116,-2.05236 c -0.0143,6.1e-4 -2.97694,2.90928 -3.5242,8.29409 -3.93756,-3.90126 -3.67416,6.8536 -3.73331,6.77585 -5.98111,-3.08629 -10.19478,-4.75659 -17.13613,-9.92867 z"
                 style="fill:#650a0b;fill-opacity:1;fill-rule:evenodd;stroke:none;stroke-width:0.5;stroke-linecap:butt;stroke-linejoin:miter;stroke-miterlimit:4;stroke-dasharray:none;stroke-opacity:1" />
              <path
                 sodipodi:nodetypes="cccccc"
                 inkscape:connector-curvature="0"
                 id="path3939"
                 d="m 178.68372,835.28266 c 2.9169,0.70165 2.364,2.47092 3.16247,3.82438 -2.14307,-1.95284 6.62342,-6.10098 10.40758,-3.98808 -0.44127,0.22064 4.228,11.41619 4.228,11.41619 -1.13155,-8.49645 -3.82692,-17.77481 -2.86828,-25.22616 -5.67023,4.03362 -11.18751,8.20488 -14.92977,13.97367 z"
                 style="fill:#a91d20;fill-opacity:1;fill-rule:evenodd;stroke:none;stroke-width:0.5;stroke-linecap:butt;stroke-linejoin:miter;stroke-miterlimit:4;stroke-dasharray:none;stroke-opacity:1" />
            </g>
            <g
               style="stroke:none"
               id="g3941"
               transform="translate(-1.4094233,-1.3670369)">
              <path
                 sodipodi:nodetypes="ccccc"
                 inkscape:connector-curvature="0"
                 id="path3943"
                 d="m 154.10152,908.89521 34.89243,-53.64059 c -1.79235,-11.23313 -16.48094,-6.2733 -12.81496,-15.09301 -12.57245,4.33639 -18.05799,-3.29606 -24.33419,12.31551 z"
                 style="fill:#e92d3c;fill-opacity:1;fill-rule:evenodd;stroke:#2f3717;stroke-width:1px;stroke-linecap:butt;stroke-linejoin:miter;stroke-opacity:1" />
              <path
                 sodipodi:nodetypes="ccccccccccccc"
                 inkscape:connector-curvature="0"
                 id="path3945"
                 transform="translate(-17.756672,752.80475)"
                 d="m 187.4559,94.485152 c -3.24891,10.201588 -2.86519,16.641378 -5.70199,26.018758 -2.86033,-0.0203 -0.48929,-14.98726 -0.52149,-23.087894 -1.15755,7.348954 -1.74818,20.083644 -3.47265,22.046874 -1.56734,-5.19022 -0.47991,-17.39572 -1.91673,-24.927801 0.32691,14.986741 0.14936,31.600481 1.10286,44.566261 4.27897,-13.57259 15.71,-26.72461 24.24941,-40.644319 -4.1056,4.443879 -6.92003,12.000359 -11.80469,13.587689 -4.38349,3.8324 -2.74799,-9.90551 -1.93472,-17.559568 z m -1.50649,11.237958 c -0.66019,4.29815 -0.76897,8.83132 0.62871,10.25931 -0.6543,5.49527 -1.30859,3.23687 -1.96289,1.45 z"
                 style="fill:#650a0b;fill-opacity:1;fill-rule:evenodd;stroke:none;stroke-width:0.5;stroke-linecap:butt;stroke-linejoin:round;stroke-miterlimit:4;stroke-dasharray:none;stroke-opacity:1" />
            </g>
            <g
               style="stroke:none"
               id="g3947"
               transform="matrix(0.99994876,-0.0101237,0.0101237,0.99994876,-9.375873,-0.2575859)"
               inkscape:transform-center-x="9.8611782"
               inkscape:transform-center-y="-66.936714">
              <path
                 sodipodi:nodetypes="cccccccccc"
                 inkscape:connector-curvature="0"
                 id="path3949"
                 d="m 154.44871,960.10548 c 4.00514,-34.39686 3.97999,-71.03276 -0.34719,-110.05868 2.44377,-7.39717 -1.53235,-15.65033 -5.9022,-23.95599 -3.1805,0.4748 -4.52598,-1.34416 -5.9022,-3.1247 -5.48556,6.18989 -5.10953,18.47777 -7.63814,28.46944 0.39793,16.62733 -6.88306,34.14452 -9.72127,51.38387 -2.47378,10.7737 -3.40291,21.16124 -0.34719,30.55256 -0.75821,14.39301 12.88061,19.18799 20.8313,27.77507 2.03712,-0.90498 3.62254,1.80366 5.20782,4.51344 0.0256,-2.56448 0.58727,-4.82264 3.81907,-5.55501 z"
                 style="fill:#be1f2e;fill-opacity:1;fill-rule:evenodd;stroke:none;stroke-width:0.5;stroke-linecap:butt;stroke-linejoin:miter;stroke-miterlimit:4;stroke-dasharray:none;stroke-opacity:1" />
              <path
                 sodipodi:nodetypes="cccccccscccccccccccccccscccccccccccccccccccccccccc"
                 inkscape:connector-curvature="0"
                 id="path3951"
                 d="m 148.55678,961.393 c 2.23364,1.60582 -0.0208,-1.57346 1.53706,-3.68464 -2.12746,2.04425 -0.98413,2.0768 -2.75375,1.25828 l 2.08141,-3.37265 c -3.50625,2.44873 -3.09687,1.94129 -4.84304,1.22188 1.92428,-0.0518 1.92962,-0.39148 4.02678,-1.99917 -2.39954,0.63982 -0.26097,-2.85266 -3.63098,-0.20719 0,0.94789 4.61479,-3.04476 3.37001,-2.64547 -1.70108,0.54566 -8.96238,2.52503 -8.24023,1.18389 3.22533,-0.35747 4.8383,-1.44356 7.58702,-2.91313 -3.43699,1.43995 -5.32504,1.22286 -8.76203,1.29124 2.78232,-0.73759 5.2909,-1.7449 8.07322,-3.32117 -3.61781,1.3995 -4.3024,1.52936 -7.39394,0.99923 l 6.14607,-3.0025 -10.77764,2.39201 9.20942,-4.54897 -10.55345,3.09984 11.61981,-5.41001 -12.10393,3.28201 11.04341,-6.49631 -12.69503,4.87101 10.11854,-6.84495 -12.02045,4.56613 c 0,0 16.20379,-10.29168 15.22179,-10.04618 -0.98199,0.2455 -12.81902,6.59945 -12.81902,6.59945 l 13.93014,-10.63229 -17.35584,10.25944 19.62865,-17.30309 -20.64353,15.28199 12.78755,-12.336 -12.91567,9.38544 8.74219,-10.36743 -6.87398,6.87397 c -5.31421,-2.46764 -2.17644,-5.63654 0.29694,-7.83742 l 20.07949,-12.04801 c -8.14679,3.91263 -16.81362,6.33728 -24.16773,12.51792 -1.1588,-1.06383 5.13401,-5.31333 6.47602,-6.37716 l 14.99122,-9.33225 c -6.9417,3.4822 -14.4524,4.21724 -20.66874,11.20159 -1.395,-1.92193 1.1936,-2.78706 3.36572,-5.77912 l 16.81202,-10.08695 -16.69229,7.66777 10.83615,-15.37289 -12.22545,14.54479 0.93384,-20.77138 -2.67758,21.87256 -0.0357,-8.84967 -3.70687,20.54875 c 1.86482,9.43681 2.60455,20.56126 7.11948,26.02291 7.40796,6.04692 15.80697,15.29983 18.52294,14.6439 z"
                 style="fill:#7c1214;fill-opacity:1;fill-rule:evenodd;stroke:none;stroke-width:0.5;stroke-linecap:butt;stroke-linejoin:miter;stroke-miterlimit:4;stroke-dasharray:none;stroke-opacity:1" />
              <path
                 sodipodi:nodetypes="ccaasccc"
                 inkscape:connector-curvature="0"
                 id="path3953"
                 d="m 142.84819,824.51369 4.66448,4.66449 c 0,0 3.46025,5.85662 4.2117,9.11961 1.96902,8.54989 0.1547,17.55002 0.52781,26.31578 0.43803,10.29123 4.21735,31.81834 2.00786,30.83634 -2.20949,-0.98199 -5.53926,-13.71437 -5.31962,-18.37942 3.6662,-19.26128 -3.68495,-41.49252 -3.68495,-41.49252 -0.44096,-3.33008 -2.40728,-11.06428 -2.40728,-11.06428 z"
                 style="fill:#ef6d8d;fill-opacity:1;fill-rule:evenodd;stroke:none;stroke-width:0.5;stroke-linecap:butt;stroke-linejoin:miter;stroke-miterlimit:4;stroke-dasharray:none;stroke-opacity:1" />
            </g>
            <g
               style="stroke:none"
               id="g3955"
               transform="matrix(0.99999629,0.00272423,-0.00272423,0.99999629,-85.518527,-14.920963)"
               inkscape:transform-center-x="-26.952116"
               inkscape:transform-center-y="-60.654758">
              <path
                 sodipodi:nodetypes="cccaacccc"
                 inkscape:connector-curvature="0"
                 id="path3957"
                 d="m 294.96622,854.42067 c -62.09056,32.24915 -64.71512,107.49507 -52.83579,120.47433 0.32771,1.16706 -1.19691,2.44989 1.45193,3.47188 0,0 3.30591,-0.18302 4.86064,-0.69438 2.21119,-0.72728 3.8871,-2.76129 6.14951,-3.30881 3.18242,-0.77018 5.42067,0.49396 9.82115,0.18412 5.64644,-3.19061 11.45023,-3.70644 16.66504,-14.23472 9.83045,-5.49949 16.24881,-44.72149 21.17848,-85.06113 -0.26707,-7.19481 -2.40193,-14.09868 -7.29096,-20.83129 z"
                 style="fill:#be1f2e;fill-opacity:1;fill-rule:evenodd;stroke:none;stroke-width:0.5;stroke-linecap:butt;stroke-linejoin:round;stroke-miterlimit:4;stroke-dasharray:none;stroke-opacity:1" />
              <path
                 sodipodi:nodetypes="ccccaccscccc"
                 inkscape:connector-curvature="0"
                 id="path3959"
                 d="m 269.47737,966.14353 16.20295,-23.32242 c 7.06901,-20.27912 8.78601,-44.1321 13.99345,-66.03928 0.32302,-7.03333 -2.24327,-11.17734 -3.68248,-16.44844 0,0 -11.93996,19.04005 -14.97545,29.7054 -3.32812,11.69353 -3.19149,36.33388 -3.19149,36.33388 l -8.99884,-28.90697 c 0,0 8.99884,28.90697 -3.27612,32.09846 -3.28004,0.85281 -3.83436,-9.44567 -3.83436,-9.44567 -21.49858,-5.37367 -16.78161,28.65589 -15.31458,45.28855 l 5.15548,6.38298 z"
                 style="fill:#eb4d6c;fill-opacity:1;fill-rule:evenodd;stroke:none;stroke-width:0.5;stroke-linecap:butt;stroke-linejoin:round;stroke-miterlimit:4;stroke-dasharray:none;stroke-opacity:1" />
              <path
                 sodipodi:nodetypes="ccc"
                 inkscape:connector-curvature="0"
                 id="path3961"
                 d="m 283.23496,949.0066 c 8.14409,-28.26227 15.12572,-71.48126 13.25696,-91.08019 9.77424,13.36852 0.22517,68.91145 -13.25696,91.08019 z"
                 style="fill:#f5a4b5;fill-opacity:1;fill-rule:evenodd;stroke:none;stroke-width:0.5;stroke-linecap:butt;stroke-linejoin:miter;stroke-miterlimit:4;stroke-dasharray:none;stroke-opacity:1" />
              <path
                 sodipodi:nodetypes="cccccccccccccccccccccc"
                 inkscape:connector-curvature="0"
                 id="path3963"
                 d="m 248.93392,975.59402 c -1.30935,0.72501 -6.15168,0.20962 -6.35591,-2.00837 0.0198,-2.13274 -2.12555,-3.34374 -1.5462,-5.08659 -0.11482,-2.01101 4.16438,-0.52681 5.47606,-2.31578 0.88825,-2.00401 -4.54019,-5.96552 -2.66983,-7.82964 1.21175,4.59748 4.09428,3.81091 5.90829,4.59433 4.6664,1.88956 -1.78266,6.79413 1.88856,5.72236 1.75354,-0.55197 0.40757,-4.35642 0.6945,-5.46069 3.0368,16.3957 2.39143,-0.94538 4.60633,0.53973 1.45949,1.78935 -1.0091,3.67867 0.0926,5.39358 9.25632,4.8356 6.84966,-31.27454 10.1778,-36.28442 0.63236,4.73697 -2.7912,15.9479 -1.48068,22.46062 -0.62936,4.38773 -4.91507,14.33919 -2.48714,12.77577 1.71205,-0.966 2.33415,-3.06899 4.17241,-3.85096 3.1281,-1.62938 -4.20332,2.87864 -0.48254,3.77214 7.09913,-2.6536 8.78145,-20.64665 9.72387,-27.06553 1.87946,-6.78986 -1.66221,16.53478 -2.35185,17.97855 -0.46288,2.0384 -4.22853,7.07855 -4.85982,9.10822 0.4776,2.09859 7.00267,-6.21655 6.23455,-4.02525 -0.91088,2.65708 -3.40614,4.24197 -5.49474,5.9085 -1.95969,1.32305 -3.90012,3.30115 -6.20256,3.68568 -5.60909,-0.4844 -11.76301,-0.39556 -15.0437,1.98775 z"
                 style="fill:#a72539;fill-opacity:1;fill-rule:evenodd;stroke:none;stroke-width:0.5;stroke-linecap:butt;stroke-linejoin:round;stroke-miterlimit:4;stroke-dasharray:none;stroke-opacity:1" />
              <path
                 sodipodi:nodetypes="cccccccccccccccccccccccccccccccccccccccccccccccccccccccccccccccccccccccccccccccccccccccccccccccccccccssscsssc"
                 inkscape:connector-curvature="0"
                 id="path3965"
                 d="m 244.5541,974.95995 c -1.88396,-2.90714 -1.88711,-8.77748 -2.43925,-11.90659 1.04579,3.28984 2.79253,5.17779 4.51345,7.11736 -1.56634,-2.24279 -3.42534,-7.70482 -5.20782,-12.32519 2.12537,4.09192 4.35857,7.69856 6.94376,9.72127 -3.17445,-3.76661 -4.53478,-8.74263 -6.42298,-13.36674 2.60391,4.07675 5.20782,6.52645 7.81173,9.02689 -2.87687,-3.35494 -5.50521,-8.44964 -8.15892,-13.36675 2.54605,3.36206 5.09209,6.18404 7.63814,8.15893 -3.10124,-3.22947 -5.36619,-8.13151 -7.81173,-12.67238 2.37808,3.93943 5.03211,7.39592 8.33251,9.72128 -3.332,-3.52885 -5.42209,-8.79637 -7.63814,-13.88754 2.15243,3.10254 4.22805,6.74268 6.59658,8.33252 -2.93351,-3.08442 -4.08773,-7.94813 -5.72861,-12.32518 2.74015,5.73462 5.82811,10.98229 9.72127,15.10269 -3.04973,-3.54989 -6.46183,-10.61456 -9.72127,-17.53301 2.87233,4.54263 5.70026,9.88438 8.67971,12.49878 -3.15826,-4.32611 -5.17624,-9.36489 -7.46455,-14.23472 l 6.24939,9.20049 -7.11736,-13.01956 c 2.50001,3.77177 4.87523,8.04268 7.81174,10.06846 -2.79252,-2.84366 -4.30052,-7.45353 -6.24939,-11.45721 l 4.51345,6.77017 -4.68705,-9.20049 6.77018,9.20049 -8.1743,-13.83407 9.38945,12.44531 -6.77017,-11.45721 9.37409,11.63081 c -3.77728,-4.41219 -5.96183,-9.84827 -8.15893,-15.27629 2.54605,4.36782 5.09209,7.6521 7.63814,10.76284 -3.06284,-4.16925 -5.35514,-9.52925 -7.56145,-14.3409 2.39122,4.08963 5.03667,8.6489 8.08224,12.08418 -2.82919,-3.99885 -6.07426,-12.24822 -7.91994,-17.23058 2.11088,3.67559 5.58019,10.65916 8.44072,13.5851 -2.72896,-3.48603 -4.24433,-8.35903 -6.24939,-12.67237 2.05479,3.24308 3.69421,7.16114 6.59658,9.02689 -2.1896,-2.70268 -5.90283,-9.26196 -7.78342,-12.68565 1.94185,2.4491 5.70687,8.21032 7.95701,9.73455 -2.16383,-2.38891 -4.81246,-7.16346 -6.46304,-9.96297 2.33002,2.88475 5.66289,7.95369 9.06695,9.44219 -2.97511,-2.5799 -6.10762,-8.31474 -8.36355,-11.61382 2.50986,2.89843 5.99242,8.26423 9.23152,10.22507 -2.37552,-1.88803 -5.7623,-8.11424 -7.92646,-11.48183 2.80602,3.22659 6.72659,8.88392 10.18319,11.13464 -3.33641,-3.3759 -6.84338,-9.25777 -9.56138,-13.25208 2.40665,2.80246 5.9059,7.52952 8.51981,9.6066 -2.64332,-3.26832 -5.2992,-6.53079 -6.24939,-10.58924 1.5982,2.64363 3.32896,5.09788 5.72861,6.59658 -2.72543,-3.17299 -6.06579,-7.62074 -4.51345,-9.72127 3.03365,2.50356 4.6381,5.31337 6.0758,8.15892 -1.21607,-4.22412 -4.25784,-7.06832 -6.45417,-11.29244 2.20786,3.03179 5.28305,4.72307 6.62776,7.64696 -1.01518,-2.57876 -4.31492,-7.49502 -4.7622,-9.84572 3.2727,2.66178 6.68807,7.18394 8.23408,9.84572 -1.48737,-3.33116 -4.2929,-9.37771 -6.46677,-12.9377 1.97463,2.08313 4.53986,6.68831 5.5988,8.77144 l -4.05417,-10.61451 c 2.40171,2.71964 5.51557,7.89487 7.35246,10.61451 -1.54137,-3.53409 -2.80412,-6.91619 -5.55501,-11.11002 3.19127,2.14099 4.92194,4.28199 6.77017,6.42298 l -5.9022,-8.50611 c 3.06475,2.49376 5.38113,4.91268 7.29095,7.29095 l -5.03423,-8.50611 c 2.79481,2.43032 4.6696,4.86063 5.72861,7.29095 L 267.286,878.8602 c 1.76559,-0.52715 4.02759,5.92953 5.03423,9.0269 -1.0516,-4.00393 -3.45877,-9.37661 -2.7775,-11.63081 1.89134,1.88201 3.80077,6.65034 5.03423,9.54768 -2.11356,-5.53553 -3.3715,-9.65678 -3.64548,-12.15159 3.1127,2.63085 4.68745,5.00536 5.7286,7.29095 -1.24604,-2.98999 -4.83537,-7.75187 -3.12469,-8.50611 0.25516,-5.47978 3.27278,2.90441 3.64548,4.86063 -0.22463,-2.18319 -0.89325,-4.06896 -1.66068,-6.57783 -0.0252,-6.33147 2.15576,2.15925 2.52865,3.45314 0.91587,-1.44263 0.13061,-3.6143 -0.52078,-5.72861 -0.25686,-3.21012 1.49427,1.34924 2.25672,2.08313 -0.38534,-1.67673 -1.5636,-4.21518 -0.52078,-4.33985 0.65092,-1.06124 1.27559,1.81303 1.90953,3.29829 l -0.34719,-3.81907 c 0.14448,-3.41901 2.15949,4.07172 3.47189,7.46454 0.0424,-2.64966 -0.85345,-5.56739 -2.43032,-8.6797 0.4009,-2.91669 3.66323,4.04763 4.51345,5.7286 -0.0111,-1.90749 -1.59132,-4.3784 -2.9511,-6.77017 -0.24209,-1.92366 0.69863,-1.26953 3.99266,4.51345 0.10208,-2.02526 -1.5424,-4.05053 -2.60391,-6.07579 l 3.29829,3.47188 c 0.21702,-1.02709 -1.60332,-2.58701 -2.37472,-3.94357 l 3.58988,3.24919 c -0.67187,-1.66483 -4.2991,-5.7466 -1.21516,-4.33985 l 1.73594,2.43031 c -0.46056,-1.50772 -2.88,-4.75202 0,-3.29828 l 1.38875,1.90953 c -0.32133,-1.27504 -2.49805,-4.56645 0,-2.7775 l 1.90954,1.73594 c -0.34719,-0.9837 -2.62279,-3.18231 -1.04157,-2.9511 l 1.38876,1.21516 c -0.39477,-0.75953 -1.11826,-1.78789 -0.52079,-1.73595 0.29081,-0.67386 0.94666,0.27298 1.56235,1.04157 -0.85081,-1.30504 -0.75543,-1.81235 -0.17359,-1.90954 l 0.6019,0.18723 c -0.10042,-1.74443 -2.70969,0.48688 -5.42446,1.9369 -2.71478,1.45002 -9.32792,6.23624 -12.88427,9.01157 -3.55635,2.77533 -10.82116,10.8124 -15.5158,16.39631 -4.69465,5.5839 -3.09825,4.48636 -9.22791,14.3621 -5.23501,8.36691 -9.44818,19.37824 -11.477,27.89622 -2.02882,8.51798 -3.05722,16.23392 -2.93746,23.42224 0.11975,7.18832 0.542,14.35641 1.75273,18.73434 1.21073,4.37792 4.05559,6.98047 5.29968,7.06727 z"
                 style="fill:#921823;fill-opacity:1;fill-rule:evenodd;stroke:none;stroke-width:0.5;stroke-linecap:butt;stroke-linejoin:round;stroke-miterlimit:4;stroke-dasharray:none;stroke-opacity:1" />
            </g>
          </g>
          <path
             sodipodi:nodetypes="casscccc"
             inkscape:connector-curvature="0"
             id="path3967"
             d="m 172.76603,970.42263 c 0,0 -5.10203,1.08276 -7.56961,0.52733 -1.55333,-0.34964 -2.59234,-2.08207 -4.16324,-2.34162 -1.24365,-0.20547 -1.10494,3.75312 -4.84196,0.79095 -2.52577,-2.00207 -5.39306,-3.54141 -5.39306,-3.54141 5.01901,26.51091 -13.6325,111.22902 -24.02471,167.61982 0,0 10.96073,1.0336 9.31662,-1.0336 8.90861,-54.8705 8.74551,-105.6608 36.67596,-162.02147 z"
             style="fill:#3d431d;fill-opacity:1;fill-rule:evenodd;stroke:none;stroke-width:1px;stroke-linecap:butt;stroke-linejoin:miter;stroke-opacity:1" />
        </g>
      </g>
      <g
         id="g3777"
         transform="matrix(0.99913457,0.04159465,-0.04159465,0.99913457,51.808791,-7.2990583)"
         inkscape:transform-center-x="-33.497486"
         inkscape:transform-center-y="-100.5626">
        <path
           inkscape:connector-curvature="0"
           id="path4333-6"
           d="m 184.42862,799.91699 c -3.51489,3.7836 -8.32311,6.62364 -10.44922,11.41992 -2.44003,1.43007 -3.71432,-0.30492 -5.50976,-0.625 -2.38012,1.68027 -4.52751,4.51106 -6.29688,7.41797 -2.07069,0.3253 -3.77694,0.97223 -5.29883,3.12305 -0.0612,-4.48107 -2.94861,-9.07902 -6.05468,-13.6875 -2.31716,0.52573 -3.41762,-0.65731 -4.53711,-1.81055 -3.68053,4.64084 -2.68043,13.16161 -3.95703,20.26367 1.27163,11.53536 -3.06606,24.16041 -4.14454,36.32031 -1.19017,7.6424 -1.26459,14.92248 1.54102,21.26368 0.28771,10.0531 10.62662,12.54634 16.99414,18.02734 1.4488,-0.7545 2.77716,1.03196 4.10547,2.81836 -0.0984,-1.33068 0.0367,-2.55921 1.08008,-3.39258 0.29829,0.3809 0.60282,0.7244 0.91992,1.00781 0.29946,0.795 -0.76123,1.76785 1.24414,2.33985 0,0 2.43052,-0.30068 3.55273,-0.73828 1.59603,-0.6224 2.73229,-2.12696 4.375,-2.62696 2.31071,-0.7033 4.02543,0.0585 7.25782,-0.38867 4.00978,-2.5174 8.26663,-3.1817 11.5957,-10.7832 6.98375,-4.3443 9.78433,-31.97839 11.43164,-60.3125 -0.5522,-4.99329 -2.46766,-9.68663 -6.4082,-14.11524 -1.41133,0.82028 -2.77485,1.67043 -4.09375,2.54297 -0.22178,-6.06566 -2.1839,-12.09692 -7.34766,-18.06445 z"
           style="fill:#12140a;fill-opacity:1;fill-rule:evenodd;stroke:none;stroke-width:0.5;stroke-linecap:butt;stroke-linejoin:round;stroke-miterlimit:4;stroke-dasharray:none;stroke-opacity:1" />
        <g
           inkscape:transform-center-y="-99.641346"
           inkscape:transform-center-x="-19.13161"
           transform="matrix(0.66109515,-0.04880146,0.04880146,0.66109515,8.3640878,269.69729)"
           id="g4387"
           style="stroke:none">
          <g
             id="g4344"
             transform="matrix(1.116168,0,0,1.0525235,-9.0803833,-41.125733)"
             style="stroke:none">
            <g
               transform="translate(-0.37584823,-1.2027172)"
               id="g4339"
               style="stroke:none">
              <path
                 style="fill:#df1d2a;fill-opacity:1;fill-rule:evenodd;stroke:none;stroke-width:0.5;stroke-linecap:butt;stroke-linejoin:round;stroke-miterlimit:4;stroke-dasharray:none;stroke-opacity:1"
                 d="m 154.09276,855.91441 27.00491,5.64648 c 7.25739,-4.33257 14.51324,-8.66978 20.62193,-16.44845 0.38399,-8.82538 -1.63545,-17.78809 -8.10147,-27.0049 -5.11406,5.03728 -11.87803,8.58964 -15.22095,15.22095 -3.43112,1.78664 -4.97682,-0.82605 -7.36498,-1.473 -9.18982,5.85538 -16.93944,24.05892 -16.93944,24.05892 z"
                 id="path4333"
                 inkscape:connector-curvature="0"
                 sodipodi:nodetypes="ccccccc" />
              <path
                 style="fill:#650a0b;fill-opacity:1;fill-rule:evenodd;stroke:none;stroke-width:0.5;stroke-linecap:butt;stroke-linejoin:miter;stroke-miterlimit:4;stroke-dasharray:none;stroke-opacity:1"
                 d="m 169.63761,844.03459 1.79617,-5.35057 c 1.33991,-1.15215 0.49753,-3.06522 -0.25171,-4.94582 4.3168,0.30202 8.60038,4.02011 9.70802,7.20748 l 13.14116,-2.05236 c -0.0143,6.1e-4 -2.97694,2.90928 -3.5242,8.29409 -3.93756,-3.90126 -3.67416,6.8536 -3.73331,6.77585 -5.98111,-3.08629 -10.19478,-4.75659 -17.13613,-9.92867 z"
                 id="path4335"
                 inkscape:connector-curvature="0"
                 sodipodi:nodetypes="cccccccc" />
              <path
                 style="fill:#a91d20;fill-opacity:1;fill-rule:evenodd;stroke:none;stroke-width:0.5;stroke-linecap:butt;stroke-linejoin:miter;stroke-miterlimit:4;stroke-dasharray:none;stroke-opacity:1"
                 d="m 178.68372,835.28266 c 2.9169,0.70165 2.364,2.47092 3.16247,3.82438 -2.14307,-1.95284 6.62342,-6.10098 10.40758,-3.98808 -0.44127,0.22064 4.228,11.41619 4.228,11.41619 -1.13155,-8.49645 -3.82692,-17.77481 -2.86828,-25.22616 -5.67023,4.03362 -11.18751,8.20488 -14.92977,13.97367 z"
                 id="path4337"
                 inkscape:connector-curvature="0"
                 sodipodi:nodetypes="cccccc" />
            </g>
            <g
               transform="translate(-1.4094233,-1.3670369)"
               id="g4329"
               style="stroke:none">
              <path
                 style="fill:#e92d3c;fill-opacity:1;fill-rule:evenodd;stroke:#2f3717;stroke-width:1px;stroke-linecap:butt;stroke-linejoin:miter;stroke-opacity:1"
                 d="m 154.10152,908.89521 34.89243,-53.64059 c -1.79235,-11.23313 -16.48094,-6.2733 -12.81496,-15.09301 -12.57245,4.33639 -18.05799,-3.29606 -24.33419,12.31551 z"
                 id="path4322"
                 inkscape:connector-curvature="0"
                 sodipodi:nodetypes="ccccc" />
              <path
                 style="fill:#650a0b;fill-opacity:1;fill-rule:evenodd;stroke:none;stroke-width:0.5;stroke-linecap:butt;stroke-linejoin:round;stroke-miterlimit:4;stroke-dasharray:none;stroke-opacity:1"
                 d="m 187.4559,94.485152 c -3.24891,10.201588 -2.86519,16.641378 -5.70199,26.018758 -2.86033,-0.0203 -0.48929,-14.98726 -0.52149,-23.087894 -1.15755,7.348954 -1.74818,20.083644 -3.47265,22.046874 -1.56734,-5.19022 -0.47991,-17.39572 -1.91673,-24.927801 0.32691,14.986741 0.14936,31.600481 1.10286,44.566261 4.27897,-13.57259 15.71,-26.72461 24.24941,-40.644319 -4.1056,4.443879 -6.92003,12.000359 -11.80469,13.587689 -4.38349,3.8324 -2.74799,-9.90551 -1.93472,-17.559568 z m -1.50649,11.237958 c -0.66019,4.29815 -0.76897,8.83132 0.62871,10.25931 -0.6543,5.49527 -1.30859,3.23687 -1.96289,1.45 z"
                 transform="translate(-17.756672,752.80475)"
                 id="path4324"
                 inkscape:connector-curvature="0"
                 sodipodi:nodetypes="ccccccccccccc" />
            </g>
            <g
               inkscape:transform-center-y="-66.936714"
               inkscape:transform-center-x="9.8611782"
               transform="matrix(0.99994876,-0.0101237,0.0101237,0.99994876,-9.375873,-0.2575859)"
               id="g4317"
               style="stroke:none">
              <path
                 style="fill:#be1f2e;fill-opacity:1;fill-rule:evenodd;stroke:none;stroke-width:0.5;stroke-linecap:butt;stroke-linejoin:miter;stroke-miterlimit:4;stroke-dasharray:none;stroke-opacity:1"
                 d="m 154.44871,960.10548 c 4.00514,-34.39686 3.97999,-71.03276 -0.34719,-110.05868 2.44377,-7.39717 -1.53235,-15.65033 -5.9022,-23.95599 -3.1805,0.4748 -4.52598,-1.34416 -5.9022,-3.1247 -5.48556,6.18989 -5.10953,18.47777 -7.63814,28.46944 0.39793,16.62733 -6.88306,34.14452 -9.72127,51.38387 -2.47378,10.7737 -3.40291,21.16124 -0.34719,30.55256 -0.75821,14.39301 12.88061,19.18799 20.8313,27.77507 2.03712,-0.90498 3.62254,1.80366 5.20782,4.51344 0.0256,-2.56448 0.58727,-4.82264 3.81907,-5.55501 z"
                 id="path4311"
                 inkscape:connector-curvature="0"
                 sodipodi:nodetypes="cccccccccc" />
              <path
                 style="fill:#7c1214;fill-opacity:1;fill-rule:evenodd;stroke:none;stroke-width:0.5;stroke-linecap:butt;stroke-linejoin:miter;stroke-miterlimit:4;stroke-dasharray:none;stroke-opacity:1"
                 d="m 148.55678,961.393 c 2.23364,1.60582 -0.0208,-1.57346 1.53706,-3.68464 -2.12746,2.04425 -0.98413,2.0768 -2.75375,1.25828 l 2.08141,-3.37265 c -3.50625,2.44873 -3.09687,1.94129 -4.84304,1.22188 1.92428,-0.0518 1.92962,-0.39148 4.02678,-1.99917 -2.39954,0.63982 -0.26097,-2.85266 -3.63098,-0.20719 0,0.94789 4.61479,-3.04476 3.37001,-2.64547 -1.70108,0.54566 -8.96238,2.52503 -8.24023,1.18389 3.22533,-0.35747 4.8383,-1.44356 7.58702,-2.91313 -3.43699,1.43995 -5.32504,1.22286 -8.76203,1.29124 2.78232,-0.73759 5.2909,-1.7449 8.07322,-3.32117 -3.61781,1.3995 -4.3024,1.52936 -7.39394,0.99923 l 6.14607,-3.0025 -10.77764,2.39201 9.20942,-4.54897 -10.55345,3.09984 11.61981,-5.41001 -12.10393,3.28201 11.04341,-6.49631 -12.69503,4.87101 10.11854,-6.84495 -12.02045,4.56613 c 0,0 16.20379,-10.29168 15.22179,-10.04618 -0.98199,0.2455 -12.81902,6.59945 -12.81902,6.59945 l 13.93014,-10.63229 -17.35584,10.25944 19.62865,-17.30309 -20.64353,15.28199 12.78755,-12.336 -12.91567,9.38544 8.74219,-10.36743 -6.87398,6.87397 c -5.31421,-2.46764 -2.17644,-5.63654 0.29694,-7.83742 l 20.07949,-12.04801 c -8.14679,3.91263 -16.81362,6.33728 -24.16773,12.51792 -1.1588,-1.06383 5.13401,-5.31333 6.47602,-6.37716 l 14.99122,-9.33225 c -6.9417,3.4822 -14.4524,4.21724 -20.66874,11.20159 -1.395,-1.92193 1.1936,-2.78706 3.36572,-5.77912 l 16.81202,-10.08695 -16.69229,7.66777 10.83615,-15.37289 -12.22545,14.54479 0.93384,-20.77138 -2.67758,21.87256 -0.0357,-8.84967 -3.70687,20.54875 c 1.86482,9.43681 2.60455,20.56126 7.11948,26.02291 7.40796,6.04692 15.80697,15.29983 18.52294,14.6439 z"
                 id="path4313"
                 inkscape:connector-curvature="0"
                 sodipodi:nodetypes="cccccccscccccccccccccccscccccccccccccccccccccccccc" />
              <path
                 style="fill:#ef6d8d;fill-opacity:1;fill-rule:evenodd;stroke:none;stroke-width:0.5;stroke-linecap:butt;stroke-linejoin:miter;stroke-miterlimit:4;stroke-dasharray:none;stroke-opacity:1"
                 d="m 142.84819,824.51369 4.66448,4.66449 c 0,0 3.46025,5.85662 4.2117,9.11961 1.96902,8.54989 0.1547,17.55002 0.52781,26.31578 0.43803,10.29123 4.21735,31.81834 2.00786,30.83634 -2.20949,-0.98199 -5.53926,-13.71437 -5.31962,-18.37942 3.6662,-19.26128 -3.68495,-41.49252 -3.68495,-41.49252 -0.44096,-3.33008 -2.40728,-11.06428 -2.40728,-11.06428 z"
                 id="path4315"
                 inkscape:connector-curvature="0"
                 sodipodi:nodetypes="ccaasccc" />
            </g>
            <g
               inkscape:transform-center-y="-60.654758"
               inkscape:transform-center-x="-26.952116"
               transform="matrix(0.99999629,0.00272423,-0.00272423,0.99999629,-85.518527,-14.920963)"
               id="g4304"
               style="stroke:none">
              <path
                 style="fill:#be1f2e;fill-opacity:1;fill-rule:evenodd;stroke:none;stroke-width:0.5;stroke-linecap:butt;stroke-linejoin:round;stroke-miterlimit:4;stroke-dasharray:none;stroke-opacity:1"
                 d="m 294.96622,854.42067 c -62.09056,32.24915 -64.71512,107.49507 -52.83579,120.47433 0.32771,1.16706 -1.19691,2.44989 1.45193,3.47188 0,0 3.30591,-0.18302 4.86064,-0.69438 2.21119,-0.72728 3.8871,-2.76129 6.14951,-3.30881 3.18242,-0.77018 5.42067,0.49396 9.82115,0.18412 5.64644,-3.19061 11.45023,-3.70644 16.66504,-14.23472 9.83045,-5.49949 16.24881,-44.72149 21.17848,-85.06113 -0.26707,-7.19481 -2.40193,-14.09868 -7.29096,-20.83129 z"
                 id="path3491"
                 inkscape:connector-curvature="0"
                 sodipodi:nodetypes="cccaacccc" />
              <path
                 style="fill:#eb4d6c;fill-opacity:1;fill-rule:evenodd;stroke:none;stroke-width:0.5;stroke-linecap:butt;stroke-linejoin:round;stroke-miterlimit:4;stroke-dasharray:none;stroke-opacity:1"
                 d="m 269.47737,966.14353 16.20295,-23.32242 c 7.06901,-20.27912 8.78601,-44.1321 13.99345,-66.03928 0.32302,-7.03333 -2.24327,-11.17734 -3.68248,-16.44844 0,0 -11.93996,19.04005 -14.97545,29.7054 -3.32812,11.69353 -3.19149,36.33388 -3.19149,36.33388 l -8.99884,-28.90697 c 0,0 8.99884,28.90697 -3.27612,32.09846 -3.28004,0.85281 -3.83436,-9.44567 -3.83436,-9.44567 -21.49858,-5.37367 -16.78161,28.65589 -15.31458,45.28855 l 5.15548,6.38298 z"
                 id="path4300"
                 inkscape:connector-curvature="0"
                 sodipodi:nodetypes="ccccaccscccc" />
              <path
                 style="fill:#f5a4b5;fill-opacity:1;fill-rule:evenodd;stroke:none;stroke-width:0.5;stroke-linecap:butt;stroke-linejoin:miter;stroke-miterlimit:4;stroke-dasharray:none;stroke-opacity:1"
                 d="m 283.23496,949.0066 c 8.14409,-28.26227 15.12572,-71.48126 13.25696,-91.08019 9.77424,13.36852 0.22517,68.91145 -13.25696,91.08019 z"
                 id="path4302"
                 inkscape:connector-curvature="0"
                 sodipodi:nodetypes="ccc" />
              <path
                 style="fill:#a72539;fill-opacity:1;fill-rule:evenodd;stroke:none;stroke-width:0.5;stroke-linecap:butt;stroke-linejoin:round;stroke-miterlimit:4;stroke-dasharray:none;stroke-opacity:1"
                 d="m 248.93392,975.59402 c -1.30935,0.72501 -6.15168,0.20962 -6.35591,-2.00837 0.0198,-2.13274 -2.12555,-3.34374 -1.5462,-5.08659 -0.11482,-2.01101 4.16438,-0.52681 5.47606,-2.31578 0.88825,-2.00401 -4.54019,-5.96552 -2.66983,-7.82964 1.21175,4.59748 4.09428,3.81091 5.90829,4.59433 4.6664,1.88956 -1.78266,6.79413 1.88856,5.72236 1.75354,-0.55197 0.40757,-4.35642 0.6945,-5.46069 3.0368,16.3957 2.39143,-0.94538 4.60633,0.53973 1.45949,1.78935 -1.0091,3.67867 0.0926,5.39358 9.25632,4.8356 6.84966,-31.27454 10.1778,-36.28442 0.63236,4.73697 -2.7912,15.9479 -1.48068,22.46062 -0.62936,4.38773 -4.91507,14.33919 -2.48714,12.77577 1.71205,-0.966 2.33415,-3.06899 4.17241,-3.85096 3.1281,-1.62938 -4.20332,2.87864 -0.48254,3.77214 7.09913,-2.6536 8.78145,-20.64665 9.72387,-27.06553 1.87946,-6.78986 -1.66221,16.53478 -2.35185,17.97855 -0.46288,2.0384 -4.22853,7.07855 -4.85982,9.10822 0.4776,2.09859 7.00267,-6.21655 6.23455,-4.02525 -0.91088,2.65708 -3.40614,4.24197 -5.49474,5.9085 -1.95969,1.32305 -3.90012,3.30115 -6.20256,3.68568 -5.60909,-0.4844 -11.76301,-0.39556 -15.0437,1.98775 z"
                 id="path4295"
                 inkscape:connector-curvature="0"
                 sodipodi:nodetypes="cccccccccccccccccccccc" />
              <path
                 style="fill:#921823;fill-opacity:1;fill-rule:evenodd;stroke:none;stroke-width:0.5;stroke-linecap:butt;stroke-linejoin:round;stroke-miterlimit:4;stroke-dasharray:none;stroke-opacity:1"
                 d="m 244.5541,974.95995 c -1.88396,-2.90714 -1.88711,-8.77748 -2.43925,-11.90659 1.04579,3.28984 2.79253,5.17779 4.51345,7.11736 -1.56634,-2.24279 -3.42534,-7.70482 -5.20782,-12.32519 2.12537,4.09192 4.35857,7.69856 6.94376,9.72127 -3.17445,-3.76661 -4.53478,-8.74263 -6.42298,-13.36674 2.60391,4.07675 5.20782,6.52645 7.81173,9.02689 -2.87687,-3.35494 -5.50521,-8.44964 -8.15892,-13.36675 2.54605,3.36206 5.09209,6.18404 7.63814,8.15893 -3.10124,-3.22947 -5.36619,-8.13151 -7.81173,-12.67238 2.37808,3.93943 5.03211,7.39592 8.33251,9.72128 -3.332,-3.52885 -5.42209,-8.79637 -7.63814,-13.88754 2.15243,3.10254 4.22805,6.74268 6.59658,8.33252 -2.93351,-3.08442 -4.08773,-7.94813 -5.72861,-12.32518 2.74015,5.73462 5.82811,10.98229 9.72127,15.10269 -3.04973,-3.54989 -6.46183,-10.61456 -9.72127,-17.53301 2.87233,4.54263 5.70026,9.88438 8.67971,12.49878 -3.15826,-4.32611 -5.17624,-9.36489 -7.46455,-14.23472 l 6.24939,9.20049 -7.11736,-13.01956 c 2.50001,3.77177 4.87523,8.04268 7.81174,10.06846 -2.79252,-2.84366 -4.30052,-7.45353 -6.24939,-11.45721 l 4.51345,6.77017 -4.68705,-9.20049 6.77018,9.20049 -8.1743,-13.83407 9.38945,12.44531 -6.77017,-11.45721 9.37409,11.63081 c -3.77728,-4.41219 -5.96183,-9.84827 -8.15893,-15.27629 2.54605,4.36782 5.09209,7.6521 7.63814,10.76284 -3.06284,-4.16925 -5.35514,-9.52925 -7.56145,-14.3409 2.39122,4.08963 5.03667,8.6489 8.08224,12.08418 -2.82919,-3.99885 -6.07426,-12.24822 -7.91994,-17.23058 2.11088,3.67559 5.58019,10.65916 8.44072,13.5851 -2.72896,-3.48603 -4.24433,-8.35903 -6.24939,-12.67237 2.05479,3.24308 3.69421,7.16114 6.59658,9.02689 -2.1896,-2.70268 -5.90283,-9.26196 -7.78342,-12.68565 1.94185,2.4491 5.70687,8.21032 7.95701,9.73455 -2.16383,-2.38891 -4.81246,-7.16346 -6.46304,-9.96297 2.33002,2.88475 5.66289,7.95369 9.06695,9.44219 -2.97511,-2.5799 -6.10762,-8.31474 -8.36355,-11.61382 2.50986,2.89843 5.99242,8.26423 9.23152,10.22507 -2.37552,-1.88803 -5.7623,-8.11424 -7.92646,-11.48183 2.80602,3.22659 6.72659,8.88392 10.18319,11.13464 -3.33641,-3.3759 -6.84338,-9.25777 -9.56138,-13.25208 2.40665,2.80246 5.9059,7.52952 8.51981,9.6066 -2.64332,-3.26832 -5.2992,-6.53079 -6.24939,-10.58924 1.5982,2.64363 3.32896,5.09788 5.72861,6.59658 -2.72543,-3.17299 -6.06579,-7.62074 -4.51345,-9.72127 3.03365,2.50356 4.6381,5.31337 6.0758,8.15892 -1.21607,-4.22412 -4.25784,-7.06832 -6.45417,-11.29244 2.20786,3.03179 5.28305,4.72307 6.62776,7.64696 -1.01518,-2.57876 -4.31492,-7.49502 -4.7622,-9.84572 3.2727,2.66178 6.68807,7.18394 8.23408,9.84572 -1.48737,-3.33116 -4.2929,-9.37771 -6.46677,-12.9377 1.97463,2.08313 4.53986,6.68831 5.5988,8.77144 l -4.05417,-10.61451 c 2.40171,2.71964 5.51557,7.89487 7.35246,10.61451 -1.54137,-3.53409 -2.80412,-6.91619 -5.55501,-11.11002 3.19127,2.14099 4.92194,4.28199 6.77017,6.42298 l -5.9022,-8.50611 c 3.06475,2.49376 5.38113,4.91268 7.29095,7.29095 l -5.03423,-8.50611 c 2.79481,2.43032 4.6696,4.86063 5.72861,7.29095 L 267.286,878.8602 c 1.76559,-0.52715 4.02759,5.92953 5.03423,9.0269 -1.0516,-4.00393 -3.45877,-9.37661 -2.7775,-11.63081 1.89134,1.88201 3.80077,6.65034 5.03423,9.54768 -2.11356,-5.53553 -3.3715,-9.65678 -3.64548,-12.15159 3.1127,2.63085 4.68745,5.00536 5.7286,7.29095 -1.24604,-2.98999 -4.83537,-7.75187 -3.12469,-8.50611 0.25516,-5.47978 3.27278,2.90441 3.64548,4.86063 -0.22463,-2.18319 -0.89325,-4.06896 -1.66068,-6.57783 -0.0252,-6.33147 2.15576,2.15925 2.52865,3.45314 0.91587,-1.44263 0.13061,-3.6143 -0.52078,-5.72861 -0.25686,-3.21012 1.49427,1.34924 2.25672,2.08313 -0.38534,-1.67673 -1.5636,-4.21518 -0.52078,-4.33985 0.65092,-1.06124 1.27559,1.81303 1.90953,3.29829 l -0.34719,-3.81907 c 0.14448,-3.41901 2.15949,4.07172 3.47189,7.46454 0.0424,-2.64966 -0.85345,-5.56739 -2.43032,-8.6797 0.4009,-2.91669 3.66323,4.04763 4.51345,5.7286 -0.0111,-1.90749 -1.59132,-4.3784 -2.9511,-6.77017 -0.24209,-1.92366 0.69863,-1.26953 3.99266,4.51345 0.10208,-2.02526 -1.5424,-4.05053 -2.60391,-6.07579 l 3.29829,3.47188 c 0.21702,-1.02709 -1.60332,-2.58701 -2.37472,-3.94357 l 3.58988,3.24919 c -0.67187,-1.66483 -4.2991,-5.7466 -1.21516,-4.33985 l 1.73594,2.43031 c -0.46056,-1.50772 -2.88,-4.75202 0,-3.29828 l 1.38875,1.90953 c -0.32133,-1.27504 -2.49805,-4.56645 0,-2.7775 l 1.90954,1.73594 c -0.34719,-0.9837 -2.62279,-3.18231 -1.04157,-2.9511 l 1.38876,1.21516 c -0.39477,-0.75953 -1.11826,-1.78789 -0.52079,-1.73595 0.29081,-0.67386 0.94666,0.27298 1.56235,1.04157 -0.85081,-1.30504 -0.75543,-1.81235 -0.17359,-1.90954 l 0.6019,0.18723 c -0.10042,-1.74443 -2.70969,0.48688 -5.42446,1.9369 -2.71478,1.45002 -9.32792,6.23624 -12.88427,9.01157 -3.55635,2.77533 -10.82116,10.8124 -15.5158,16.39631 -4.69465,5.5839 -3.09825,4.48636 -9.22791,14.3621 -5.23501,8.36691 -9.44818,19.37824 -11.477,27.89622 -2.02882,8.51798 -3.05722,16.23392 -2.93746,23.42224 0.11975,7.18832 0.542,14.35641 1.75273,18.73434 1.21073,4.37792 4.05559,6.98047 5.29968,7.06727 z"
                 id="path4293"
                 inkscape:connector-curvature="0"
                 sodipodi:nodetypes="cccccccccccccccccccccccccccccccccccccccccccccccccccccccccccccccccccccccccccccccccccccccccccccccccccccssscsssc" />
            </g>
          </g>
          <path
             style="fill:#3d431d;fill-opacity:1;fill-rule:evenodd;stroke:none;stroke-width:1px;stroke-linecap:butt;stroke-linejoin:miter;stroke-opacity:1"
             d="m 172.76603,970.42263 c 0,0 -5.10203,1.08276 -7.56961,0.52733 -1.55333,-0.34964 -2.59234,-2.08207 -4.16324,-2.34162 -1.24365,-0.20547 -1.10494,3.75312 -4.84196,0.79095 -2.52577,-2.00207 -5.39306,-3.54141 -5.39306,-3.54141 5.01901,26.51091 -13.6325,111.22902 -24.02471,167.61982 0,0 10.96073,1.0336 9.31662,-1.0336 8.90861,-54.8705 8.74551,-105.6608 36.67596,-162.02147 z"
             id="path4363"
             inkscape:connector-curvature="0"
             sodipodi:nodetypes="casscccc" />
        </g>
      </g>
      <g
         style="stroke:none"
         id="g3442"
         transform="translate(16.198868,-0.008022)">
        <path
           inkscape:transform-center-y="-78.498689"
           inkscape:transform-center-x="41.154223"
           sodipodi:nodetypes="ccccccc"
           inkscape:connector-curvature="0"
           id="path4365"
           d="M 147.50374,1002.1715 C 137.55105,966.57039 130.10677,930.88505 107.5654,895.70608 97.17264,879.27462 79.748012,862.44982 55.151558,845.93514 l -3.335465,-5.99282 c -1.407079,3.8165 -2.934266,5.97489 0.129568,9.94335 36.449716,40.64584 60.073879,104.16478 84.910229,165.52193 z"
           style="fill:#2f3717;fill-opacity:1;fill-rule:evenodd;stroke:none;stroke-width:0.5;stroke-linecap:butt;stroke-linejoin:miter;stroke-miterlimit:4;stroke-dasharray:none;stroke-opacity:1" />
        <path
           style="fill:#1c200e;fill-opacity:1;fill-rule:evenodd;stroke:none;stroke-width:0.5;stroke-linecap:butt;stroke-linejoin:miter;stroke-miterlimit:4;stroke-dasharray:none;stroke-opacity:1"
           d="m 133.92572,1027.3671 c 4.58419,-27.79561 6.18839,-55.5368 25.728,-83.6066 8.96604,-13.10447 26.15922,-26.84488 51.88661,-40.68806 l 2.73267,-4.75781 c 2.43099,2.86229 4.66982,4.4462 1.85018,7.63743 -34.86743,32.92634 -49.97656,82.79775 -66.95308,131.06754 z"
           id="path4371"
           inkscape:connector-curvature="0"
           sodipodi:nodetypes="ccccccc"
           inkscape:transform-center-x="-32.072256"
           inkscape:transform-center-y="-62.414538" />
        <path
           inkscape:transform-center-y="-67.590821"
           inkscape:transform-center-x="-16.306959"
           sodipodi:nodetypes="ccccccc"
           inkscape:connector-curvature="0"
           id="path4381"
           d="m 147.93139,1034.5529 c -6.74701,-27.3513 -10.51887,-54.88152 -32.19683,-81.33482 -9.96481,-12.36201 -28.181287,-24.71367 -54.913822,-36.49943 l -3.096892,-4.52918 c -2.19937,3.04378 -4.307282,4.79818 -1.24636,7.75886 37.339043,30.0944 56.307574,78.62931 77.012314,125.42127 z"
           style="fill:#12140a;fill-opacity:1;fill-rule:evenodd;stroke:none;stroke-width:0.5;stroke-linecap:butt;stroke-linejoin:miter;stroke-miterlimit:4;stroke-dasharray:none;stroke-opacity:1" />
      </g>
    </g>
  </g>
</svg>
