<?xml version="1.0" encoding="UTF-8" standalone="no"?>
<!-- Created with Inkscape (http://www.inkscape.org/) -->

<svg
   xmlns:dc="http://purl.org/dc/elements/1.1/"
   xmlns:cc="http://creativecommons.org/ns#"
   xmlns:rdf="http://www.w3.org/1999/02/22-rdf-syntax-ns#"
   xmlns:svg="http://www.w3.org/2000/svg"
   xmlns="http://www.w3.org/2000/svg"
   xmlns:xlink="http://www.w3.org/1999/xlink"
   xmlns:sodipodi="http://sodipodi.sourceforge.net/DTD/sodipodi-0.dtd"
   xmlns:inkscape="http://www.inkscape.org/namespaces/inkscape"
   width="31mm"
   height="32mm"
   viewBox="0 0 109.84252 113.38582"
   id="svg2"
   version="1.1"
   inkscape:version="0.91 r13725"
   sodipodi:docname="Hirsch-coloured.svg">
  <title
     id="title4136">deer - coloured</title>
  <defs
     id="defs4">
    <linearGradient
       inkscape:collect="always"
       id="linearGradient5952">
      <stop
         style="stop-color:#2c1e1e;stop-opacity:1"
         offset="0"
         id="stop5954" />
      <stop
         style="stop-color:#c09580;stop-opacity:1"
         offset="1"
         id="stop5956" />
    </linearGradient>
    <linearGradient
       inkscape:collect="always"
       id="linearGradient5937">
      <stop
         style="stop-color:#1e0700;stop-opacity:1"
         offset="0"
         id="stop5939" />
      <stop
         id="stop5945"
         offset="0.54870385"
         style="stop-color:#8d7771;stop-opacity:1;" />
      <stop
         style="stop-color:#8d7771;stop-opacity:1"
         offset="1"
         id="stop5941" />
    </linearGradient>
    <pattern
       inkscape:collect="always"
       xlink:href="#Polkadots-large"
       id="pattern5754"
       patternTransform="matrix(1.2375,0,0,1.1875,1.283378,0.42580707)" />
    <pattern
       inkscape:isstock="true"
       inkscape:stockid="Polka dots, large"
       id="Polkadots-large"
       patternTransform="translate(0,0) scale(10,10)"
       height="10"
       width="10"
       patternUnits="userSpaceOnUse"
       inkscape:collect="always">
      <circle
         id="circle5397"
         r="0.45"
         cy="0.810"
         cx="2.567"
         style="fill:black;stroke:none" />
      <circle
         id="circle5399"
         r="0.45"
         cy="2.33"
         cx="3.048"
         style="fill:black;stroke:none" />
      <circle
         id="circle5401"
         r="0.45"
         cy="2.415"
         cx="4.418"
         style="fill:black;stroke:none" />
      <circle
         id="circle5403"
         r="0.45"
         cy="3.029"
         cx="1.844"
         style="fill:black;stroke:none" />
      <circle
         id="circle5405"
         r="0.45"
         cy="1.363"
         cx="6.08"
         style="fill:black;stroke:none" />
      <circle
         id="circle5407"
         r="0.45"
         cy="4.413"
         cx="5.819"
         style="fill:black;stroke:none" />
      <circle
         id="circle5409"
         r="0.45"
         cy="4.048"
         cx="4.305"
         style="fill:black;stroke:none" />
      <circle
         id="circle5411"
         r="0.45"
         cy="3.045"
         cx="5.541"
         style="fill:black;stroke:none" />
      <circle
         id="circle5413"
         r="0.45"
         cy="5.527"
         cx="4.785"
         style="fill:black;stroke:none" />
      <circle
         id="circle5415"
         r="0.45"
         cy="5.184"
         cx="2.667"
         style="fill:black;stroke:none" />
      <circle
         id="circle5417"
         r="0.45"
         cy="1.448"
         cx="7.965"
         style="fill:black;stroke:none" />
      <circle
         id="circle5419"
         r="0.45"
         cy="5.049"
         cx="7.047"
         style="fill:black;stroke:none" />
      <circle
         id="circle5421"
         r="0.45"
         cy="0.895"
         cx="4.340"
         style="fill:black;stroke:none" />
      <circle
         id="circle5423"
         r="0.45"
         cy="0.340"
         cx="7.125"
         style="fill:black;stroke:none" />
      <circle
         id="circle5425"
         r="0.45"
         cy="1.049"
         cx="9.553"
         style="fill:black;stroke:none" />
      <circle
         id="circle5427"
         r="0.45"
         cy="2.689"
         cx="7.006"
         style="fill:black;stroke:none" />
      <circle
         id="circle5429"
         r="0.45"
         cy="2.689"
         cx="8.909"
         style="fill:black;stroke:none" />
      <circle
         id="circle5431"
         r="0.45"
         cy="4.407"
         cx="9.315"
         style="fill:black;stroke:none" />
      <circle
         id="circle5433"
         r="0.45"
         cy="3.870"
         cx="7.820"
         style="fill:black;stroke:none" />
      <circle
         id="circle5435"
         r="0.45"
         cy="5.948"
         cx="8.270"
         style="fill:black;stroke:none" />
      <circle
         id="circle5437"
         r="0.45"
         cy="7.428"
         cx="7.973"
         style="fill:black;stroke:none" />
      <circle
         id="circle5439"
         r="0.45"
         cy="8.072"
         cx="9.342"
         style="fill:black;stroke:none" />
      <circle
         id="circle5441"
         r="0.45"
         cy="9.315"
         cx="8.206"
         style="fill:black;stroke:none" />
      <circle
         id="circle5443"
         r="0.45"
         cy="9.475"
         cx="9.682"
         style="fill:black;stroke:none" />
      <circle
         id="circle5445"
         r="0.45"
         cy="6.186"
         cx="9.688"
         style="fill:black;stroke:none" />
      <circle
         id="circle5447"
         r="0.45"
         cy="6.296"
         cx="3.379"
         style="fill:black;stroke:none" />
      <circle
         id="circle5449"
         r="0.45"
         cy="8.204"
         cx="2.871"
         style="fill:black;stroke:none" />
      <circle
         id="circle5451"
         r="0.45"
         cy="8.719"
         cx="4.59"
         style="fill:black;stroke:none" />
      <circle
         id="circle5453"
         r="0.45"
         cy="9.671"
         cx="3.181"
         style="fill:black;stroke:none" />
      <circle
         id="circle5455"
         r="0.45"
         cy="7.315"
         cx="5.734"
         style="fill:black;stroke:none" />
      <circle
         id="circle5457"
         r="0.45"
         cy="6.513"
         cx="6.707"
         style="fill:black;stroke:none" />
      <circle
         id="circle5459"
         r="0.45"
         cy="9.670"
         cx="5.730"
         style="fill:black;stroke:none" />
      <circle
         id="circle5461"
         r="0.45"
         cy="8.373"
         cx="6.535"
         style="fill:black;stroke:none" />
      <circle
         id="circle5463"
         r="0.45"
         cy="7.154"
         cx="4.37"
         style="fill:black;stroke:none" />
      <circle
         id="circle5465"
         r="0.45"
         cy="7.25"
         cx="0.622"
         style="fill:black;stroke:none" />
      <circle
         id="circle5467"
         r="0.45"
         cy="5.679"
         cx="0.831"
         style="fill:black;stroke:none" />
      <circle
         id="circle5469"
         r="0.45"
         cy="8.519"
         cx="1.257"
         style="fill:black;stroke:none" />
      <circle
         id="circle5471"
         r="0.45"
         cy="6.877"
         cx="1.989"
         style="fill:black;stroke:none" />
      <circle
         id="circle5473"
         r="0.45"
         cy="3.181"
         cx="0.374"
         style="fill:black;stroke:none" />
      <circle
         id="circle5475"
         r="0.45"
         cy="1.664"
         cx="1.166"
         style="fill:black;stroke:none" />
      <circle
         id="circle5477"
         r="0.45"
         cy="0.093"
         cx="1.151"
         style="fill:black;stroke:none" />
      <circle
         id="circle5479"
         r="0.45"
         cy="10.093"
         cx="1.151"
         style="fill:black;stroke:none" />
      <circle
         id="circle5481"
         r="0.45"
         cy="4.451"
         cx="1.302"
         style="fill:black;stroke:none" />
      <circle
         id="circle5483"
         r="0.45"
         cy="3.763"
         cx="3.047"
         style="fill:black;stroke:none" />
    </pattern>
    <linearGradient
       inkscape:collect="always"
       xlink:href="#linearGradient5937"
       id="linearGradient5943"
       x1="16.21246"
       y1="56.133053"
       x2="24.037514"
       y2="56.133053"
       gradientUnits="userSpaceOnUse" />
    <radialGradient
       inkscape:collect="always"
       xlink:href="#linearGradient5952"
       id="radialGradient5958"
       cx="68.060699"
       cy="29.198017"
       fx="68.060699"
       fy="29.198017"
       r="3.2082005"
       gradientTransform="matrix(-1.5140077,-1.0675918,0.44006891,-0.62408471,158.25598,119.75621)"
       gradientUnits="userSpaceOnUse" />
    <radialGradient
       inkscape:collect="always"
       xlink:href="#linearGradient5952"
       id="radialGradient5968"
       cx="83.272842"
       cy="29.283239"
       fx="83.272842"
       fy="29.283239"
       r="3.615299"
       gradientTransform="matrix(0.68867433,0.94232619,-1.9593121,1.4319116,83.280362,-91.385994)"
       gradientUnits="userSpaceOnUse" />
  </defs>
  <sodipodi:namedview
     id="base"
     pagecolor="#ffffff"
     bordercolor="#666666"
     borderopacity="1.0"
     inkscape:pageopacity="0.0"
     inkscape:pageshadow="2"
     inkscape:zoom="1"
     inkscape:cx="81.391028"
     inkscape:cy="80.092314"
     inkscape:document-units="mm"
     inkscape:current-layer="layer2"
     showgrid="false"
     inkscape:window-width="643"
     inkscape:window-height="420"
     inkscape:window-x="1318"
     inkscape:window-y="447"
     inkscape:window-maximized="0"
     borderlayer="true"
     inkscape:snap-global="false"
     fit-margin-right="1"
     fit-margin-left="2"
     fit-margin-bottom="1"
     fit-margin-top="1" />
  <metadata
     id="metadata7">
    <rdf:RDF>
      <cc:Work
         rdf:about="">
        <dc:format>image/svg+xml</dc:format>
        <dc:type
           rdf:resource="http://purl.org/dc/dcmitype/StillImage" />
        <dc:title>deer - coloured</dc:title>
        <cc:license
           rdf:resource="http://creativecommons.org/publicdomain/zero/1.0/" />
        <dc:date>2016-02-08</dc:date>
        <dc:creator>
          <cc:Agent>
            <dc:title>Frank Tremmel</dc:title>
          </cc:Agent>
        </dc:creator>
        <dc:subject>
          <rdf:Bag>
            <rdf:li>Hirsch</rdf:li>
            <rdf:li>Hirschbock</rdf:li>
            <rdf:li>Tier</rdf:li>
            <rdf:li>line art</rdf:li>
            <rdf:li>deer</rdf:li>
            <rdf:li>stag</rdf:li>
            <rdf:li>animal</rdf:li>
            <rdf:li>lineart</rdf:li>
            <rdf:li />
          </rdf:Bag>
        </dc:subject>
        <dc:contributor>
          <cc:Agent>
            <dc:title>coloured line art stag</dc:title>
          </cc:Agent>
        </dc:contributor>
      </cc:Work>
      <cc:License
         rdf:about="http://creativecommons.org/publicdomain/zero/1.0/">
        <cc:permits
           rdf:resource="http://creativecommons.org/ns#Reproduction" />
        <cc:permits
           rdf:resource="http://creativecommons.org/ns#Distribution" />
        <cc:permits
           rdf:resource="http://creativecommons.org/ns#DerivativeWorks" />
      </cc:License>
    </rdf:RDF>
  </metadata>
  <g
     inkscape:groupmode="layer"
     id="layer2"
     inkscape:label="Ebene 2"
     transform="translate(1.0341153,4.315244)">
    <path
       style="fill:#e7c5b5;fill-opacity:1;fill-rule:evenodd;stroke:none;stroke-width:0.1;stroke-linecap:butt;stroke-linejoin:miter;stroke-miterlimit:4;stroke-dasharray:none;stroke-opacity:1"
       d="m 97.933594,0.49804688 0.177734,1.59179692 c 0.197749,1.1090996 0.271197,2.2794742 0,3.6230468 -0.169426,0.2927458 -0.184909,1.0067592 -0.794922,0.087891 L 96.255859,3.1503906 C 95.650408,2.4034803 95.056909,1.6190967 94.222656,1.5585938 l 1.148438,4.3320312 c -0.002,1.3280898 0.197708,3.0179072 -0.353516,3.3574219 L 93.691406,5.890625 C 92.949852,4.9799946 92.34531,3.5875258 91.392578,3.4160156 c -0.294351,0.4421634 0.194104,1.5077176 0.44336,2.3847656 0.758085,1.4380529 1.573276,2.4389512 2.121093,4.5078128 0.19964,1.520044 -0.115227,2.868771 -0.61914,4.154297 -0.923408,1.548375 -1.585416,3.514849 -3.048829,4.199218 0.517214,-1.584384 0.175133,-2.406973 -0.220703,-2.607421 -0.632317,1.452741 -1.343552,2.788533 -2.210937,3.888671 -1.296363,1.18525 -2.592309,2.221722 -3.888672,2.47461 -0.766748,0.17246 -1.323325,-0.114923 -1.501953,-1.236328 L 82.554688,18 c 0.0056,-1.248189 0.449427,-2.569835 -0.175782,-3.712891 -0.883982,0.859348 -0.722305,1.545086 -0.972656,2.298829 l -0.53125,5.037109 -1.855469,3.712891 -1.148437,0.08789 c -0.634125,0.369704 -0.651057,1.126617 -2.123047,0.972656 -0.959806,-0.05281 -1.912756,-0.113887 -2.296875,-0.972656 l -1.238281,0.08789 -2.740235,-4.683594 c -0.711226,-2.010178 -1.828927,-3.097963 -1.326172,-7.867187 -0.984368,0.989637 -1.393617,2.552298 -1.677734,4.242187 -0.05633,1.813695 0.662066,3.516624 1.414062,5.214844 -1.767767,-0.413482 -3.53692,-0.709688 -5.304687,-3.181641 l -1.236328,-4.949219 c -0.49098,1.191761 -0.746375,2.934751 -0.884766,4.949219 -0.934664,-0.461351 -1.741379,-1.685517 -2.5625,-2.828125 -1.325497,-2.861237 -2.240327,-4.082056 -1.238281,-8.3964842 0.748186,-2.111724 1.513675,-4.2261846 3.183594,-6.453125 -0.78839,0.3143212 -1.404942,0.392916 -3.09375,1.9453124 0.45063,-1.6565653 0.75237,-2.9016801 0.617187,-2.9179687 -2.00191,1.2180549 -2.344966,2.7124136 -3.003906,4.1542969 C 53.697503,7.0872047 53.4309,9.3473689 53.828125,11.458984 53.334923,10.261078 52.797973,8.6674074 52.414062,8.453125 l -0.175781,2.917969 C 50.876346,10.821271 50.265031,9.144396 49.585938,7.5703125 49.482457,6.4952824 49.37986,5.4197457 49.851562,3.7695312 L 49.408203,2.265625 c -1.15096,0.622317 -1.618928,2.0639732 -2.208984,3.359375 -0.103674,2.1468158 0.310457,4.2463175 1.501953,6.275391 0.821038,1.304203 2.021413,1.852699 3.183594,2.474609 0.636494,1.67329 1.57719,2.737233 2.5625,3.712891 2.573819,2.253662 5.266666,3.675439 7.955078,5.126953 2.0339,0.901035 3.854074,1.26812 5.65625,1.589844 l 2.740234,2.652343 c -0.63418,0.03427 -1.180492,0.377069 -2.033203,-0.353515 -2.255892,-1.138344 -3.695891,-2.64003 -6.894531,-3.359375 -0.502238,0.782476 -0.451341,1.722695 -0.13086,2.740234 l 1.898438,3.271484 c 1.086074,1.189535 2.243459,1.665515 3.447266,1.677735 0.677643,0.812918 1.355559,1.95382 2.033203,2.121094 l 0.08984,1.857421 c -0.952591,2.275233 -2.320578,4.321477 -3.978515,5.65625 -1.51427,1.051451 -2.820097,2.193363 -5.921875,2.564453 -3.682848,0.698008 -7.36598,0.698432 -11.048828,0.707032 C 43.209669,44.65774 37.16225,43.229457 31.201169,41.953125 28.272374,41.845307 25.327324,41.594991 22.62695,43.542969 L 14.054688,53.177734 15.46875,66.789062 8.8378906,80.84375 7.6015625,96.134766 6.453125,97.636719 6.363281,99.847656 8.1308592,98.962891 9.9003904,102.23242 c 2.0102486,0.27456 3.9777606,1.21615 6.0976566,-0.26367 -0.706921,-2.201529 -2.401885,-3.133187 -3.888672,-4.332031 0.01485,-3.123055 -1.317989,-6.246086 0.175781,-9.369141 L 17.5,79.871094 26.339844,70.148438 c -0.8624,3.211442 -1.716061,6.423322 -5.56836,9.634765 l 1.501954,15.291016 -1.060547,3.800781 0.441406,0.882812 1.945312,-1.767578 2.033203,4.332036 c 2.605336,2.15067 4.74913,1.06887 6.894532,0 -1.452565,-1.92084 -3.196896,-3.066667 -4.332032,-5.833989 l -2.386718,-7.779297 c 0.01646,-2.448411 -0.241869,-4.959675 1.238281,-7.070312 3.044425,-1.502789 5.637228,-4.362405 8.220703,-7.248047 4.420653,0.239418 7.433061,1.331188 15.466797,-0.619141 -0.03082,5.097061 0.782883,10.195908 1.679687,15.292969 -0.100146,2.563262 0.110271,5.126191 -1.679687,7.689453 l -0.08789,0.970703 1.855469,-1.060547 0.443359,4.066408 6.275391,0.79492 -2.474609,-3.888671 -0.707032,-4.595703 c 0.431417,-6.248004 0.574215,-12.466622 2.121094,-18.826172 l 0.707032,1.236328 0,2.564453 2.474609,14.847656 0,6.71875 c 0.83958,0.451479 1.157001,-0.491185 1.679687,-0.884765 l 2.296875,4.332034 c 1.653527,1.05428 3.420731,1.72606 5.658203,0.79492 -1.067442,-1.65675 -2.264177,-3.02191 -3.800781,-3.62305 L 65.84961,95.427734 c 0.511486,-6.291559 -0.209612,-11.488058 -0.707031,-16.882812 -0.0859,-2.989231 0.500708,-5.641259 2.296875,-7.689453 l 9.015625,-5.833985 C 79.66133,61.845529 82.53424,58.458499 83.527344,53.884766 83.754656,51.146079 84.11367,48.94259 82.466797,45.576172 81.944671,43.792616 81.715277,42.499355 80.875,40.185547 l 0.619141,-4.419922 0.794921,-1.060547 0,-1.679687 1.150391,-1.501953 c 1.845789,0.317271 3.30438,-0.717463 4.683594,-2.033204 0.705139,-1.369039 1.503922,-2.684485 1.414062,-4.507812 0.149214,-1.363025 -0.696556,-0.880245 -1.326171,-0.796875 l -4.242188,1.769531 -2.5625,1.855469 -0.443359,-0.707031 c -0.0563,-0.492815 0.557998,-1.186991 1.679687,-2.033204 4.381235,-0.758719 8.427814,-2.745472 12.462891,-4.773437 1.221009,-1.077088 2.439698,-2.156736 2.740234,-4.154297 l -0.175781,-3.535156 1.855469,-2.386719 0.08789,-1.1484374 C 99.6849,8.7152083 98.797538,9.2300891 97.580078,10.044922 L 98.287109,8.1875 c 1.932401,-0.6577837 3.223751,-1.4634842 3.625001,-2.4746094 l -2.652344,0.265625 0.884764,-2.828125 C 99.99965,1.6748183 99.00579,1.0463042 97.933594,0.49804688 Z M 96.5625,12.142578 c 0,0 0.21406,0.941242 0.15625,1.6875 -0.0839,1.083139 -0.379533,2.201981 -1,3.09375 -0.782256,1.124301 -3.09375,2.1875 -3.09375,2.1875 0.839217,-0.847801 1.656749,-1.565496 2.65625,-3.375 0.658988,-1.193038 1.010529,-1.760304 1.28125,-3.59375 z"
       id="path4211"
       inkscape:connector-curvature="0" />
    <path
       style="color:#000000;font-style:normal;font-variant:normal;font-weight:normal;font-stretch:normal;font-size:medium;line-height:normal;font-family:sans-serif;text-indent:0;text-align:start;text-decoration:none;text-decoration-line:none;text-decoration-style:solid;text-decoration-color:#000000;letter-spacing:normal;word-spacing:normal;text-transform:none;direction:ltr;block-progression:tb;writing-mode:lr-tb;baseline-shift:baseline;text-anchor:start;white-space:normal;clip-rule:nonzero;display:inline;overflow:visible;visibility:visible;opacity:1;isolation:auto;mix-blend-mode:normal;color-interpolation:sRGB;color-interpolation-filters:linearRGB;solid-color:#000000;solid-opacity:1;fill:#a0896d;fill-opacity:1;fill-rule:evenodd;stroke:none;stroke-width:1.0629921;stroke-linecap:butt;stroke-linejoin:miter;stroke-miterlimit:4;stroke-dasharray:none;stroke-dashoffset:0;stroke-opacity:1;color-rendering:auto;image-rendering:auto;shape-rendering:auto;text-rendering:auto;enable-background:accumulate"
       d="M 57.648438,0.14257812 C 56.062383,0.37024104 54.505862,3.21228 54.130859,4.1445312 53.223921,6.3991651 53.425781,9.953125 53.425781,9.953125 52.991125,8.2821351 52.739719,8.280184 52.193359,7.8105469 c -0.144125,0.563154 0.09859,2.3612101 -0.15039,3.2812501 -0.874153,-0.847923 -1.71761,-1.9895257 -2.060547,-3.3593751 -0.392036,-1.5659703 0.09241,-2.787679 0.09961,-4.0996094 0.006,-1.0833197 -0.762294,-3.07358134 -1.617187,-1.4628906 C 47.760947,3.4961228 47.111852,4.3121233 46.923828,5.8046875 46.606915,8.3203898 47.348113,11.6661 49.5,13.273438 c 1.064595,0.854554 2.236888,1.105015 2.628906,2.486328 0.594999,1.567906 1.735717,2.596796 3.166016,3.505859 2.152632,1.74679 4.761448,3.318712 7.289062,4.460937 1.627167,0.877079 3.211524,1.856954 5.082032,1.859376 0.809031,0.692177 2.168385,2.482449 3.30664,2.166015 1.361796,-0.194928 2.396358,-1.859756 1.511719,-3.103515 -0.934137,-1.254589 -2.38622,-3.435522 -3.138672,-4.808594 -1.678614,-3.06313 -0.555389,-6.51205 -0.882812,-8.029297 -0.937807,0.287897 -2.207773,3.648655 -2.201172,5.638672 0.0053,1.594488 0.168609,3.044919 0.949219,4.435547 -2.070578,-0.560841 -3.207585,-1.348267 -3.96875,-2.587891 -0.936623,-1.525374 -1.33267,-4.737456 -1.664063,-6.330078 -0.477949,0.606244 -1.425271,3.935814 -1.371094,5.517578 -1.513428,-0.974869 -2.962313,-3.773211 -3.316406,-5.996094 -0.374728,-2.352433 0.21008,-4.7186974 1.560547,-7.7617185 0.424948,-0.9575393 0.95444,-1.7296244 2.28125,-3.3945313 -0.710122,-0.052741 -3.117176,0.460294 -3.75586,1.7441407 0.207659,-0.8724791 0.868518,-2.83590318 0.671876,-2.93359378 z M 56.603516,4.4257812 c 0.797303,-1.4710982 1.170732,-1.6681788 2.582031,-2.5136718 -0.544781,0.6646832 -1.11626,1.10861 -1.742188,2.3457031 -1.043079,2.061557 -1.956566,4.4873071 -1.478515,7.7871095 0.335427,2.315327 1.682989,5.366545 4.041015,7.316406 0.429953,0.35553 0.634161,0.768431 0.980469,1.201172 1.056219,1.319836 2.842976,2.422392 4.160156,2.873047 0.737825,0.246441 1.24448,0.382324 0.0918,-0.275391 -1.647768,-0.825096 -2.965995,-1.422726 -3.876953,-2.824218 -0.894445,-1.376087 -0.554812,-3.07897 -0.08594,-4.929688 0.407061,2.223477 0.699275,3.213314 1.24414,4.357422 1.836818,1.789314 3.708611,3.244709 6.066407,3.013674 -0.255737,-0.459053 -1.033576,-2.057631 -1.447266,-4.001953 -0.345831,-1.625388 0.118127,-3.434843 0.634766,-5.06836 -0.02339,1.327042 -0.08825,3.563541 0.685546,5.886719 0.761097,2.285066 3.826572,6.215384 3.28711,6.910156 -1.18957,1.42172 -2.412415,-1.14618 -3.169922,-2.005859 -0.744274,-0.589524 -2.335738,-0.207577 -3.236328,-0.681641 -2.033344,-0.75893 -4.205686,-1.94986 -6.101563,-3.003906 -1.661048,-1.072855 -3.057707,-2.289675 -4.535156,-3.601562 -0.775133,-0.819167 -1.125892,-1.539936 -1.583984,-2.228516 -0.346244,-1.068617 -0.557607,-2.687353 -0.660157,-3.722656 0.06671,-0.711763 0.02904,-1.9227743 0.179688,-2.1992191 0.298593,0.4284705 0.389995,1.4225091 0.75,2.2734371 0.299139,0.707062 0.482481,1.431734 0.658203,2.015625 0.310135,1.032019 0.619764,1.902214 0.970703,2.503907 0.858994,1.472762 1.365576,2.011963 2.275391,2.630859 1.927383,1.311091 0.548715,0.04535 0.191406,-0.195313 C 56.866342,17.872795 55.9946,16.870966 55.423828,15.925781 55.10189,15.39266 54.884305,14.384732 54.576172,13.359375 54.278339,12.368298 54.217296,11.730005 54.160156,11.226562 53.982822,9.6641265 54.043615,7.5490058 54.40625,6.0078125 54.769994,4.4619094 55.168946,2.564231 56.92796,1.3558617 57.780724,0.6787425 56.228973,2.9155505 56.603516,4.4257812 Z M 49.400391,3.0488281 c 0.405571,0.3364355 -0.554595,2.7549162 0.04883,4.9960938 0.444764,1.6519159 1.796518,3.0406311 2.697265,3.6484371 0.06144,0.71929 0.122372,1.576876 0.25586,2.400391 -0.224991,-0.230247 -0.47709,-0.461377 -0.804688,-0.693359 -1.719032,-0.646098 -3.275851,-2.997305 -3.458984,-4.6953129 -0.104135,-0.9655409 -0.13623,-4.4497925 1.261717,-5.65625 z"
       id="path4204"
       inkscape:connector-curvature="0"
       sodipodi:nodetypes="cscccscsscccccccscscsccsscccccssssccscccscsccccccccscssssssscccscccsc" />
    <path
       style="color:#000000;font-style:normal;font-variant:normal;font-weight:normal;font-stretch:normal;font-size:medium;line-height:normal;font-family:sans-serif;text-indent:0;text-align:start;text-decoration:none;text-decoration-line:none;text-decoration-style:solid;text-decoration-color:#000000;letter-spacing:normal;word-spacing:normal;text-transform:none;direction:ltr;block-progression:tb;writing-mode:lr-tb;baseline-shift:baseline;text-anchor:start;white-space:normal;clip-rule:nonzero;display:inline;overflow:visible;visibility:visible;opacity:1;isolation:auto;mix-blend-mode:normal;color-interpolation:sRGB;color-interpolation-filters:linearRGB;solid-color:#000000;solid-opacity:1;fill:#a0896d;fill-opacity:1;fill-rule:evenodd;stroke:none;stroke-width:1.0629921;stroke-linecap:butt;stroke-linejoin:miter;stroke-miterlimit:4;stroke-dasharray:none;stroke-dashoffset:0;stroke-opacity:1;color-rendering:auto;image-rendering:auto;shape-rendering:auto;text-rendering:auto;enable-background:accumulate"
       d="m 97.771522,0.1317415 c -0.03071,0.56306051 0.259972,2.5834375 0.330078,3.3652344 0.104224,1.1622607 -0.167834,1.777324 -0.457031,1.8359375 -0.29674,0.060142 -0.651334,-1.9033999 -1.314454,-2.7265625 -1.690554,-2.0985644 -3.324787,-2.49137057 -2.205078,-0.066406 0.690264,1.4949121 0.970648,3.2243472 1.072266,4.8007813 0.07271,1.127973 -0.09888,0.9122107 -0.255871,0.8541133 C 94.795068,8.1406731 94.66825,7.3236677 94.179725,6.1883819 93.701585,5.0772305 93.45015,4.6839022 92.738319,3.9110382 90.44566,1.4218065 91.027702,4.3865124 91.777381,6.1258819 c 0.641108,1.4874687 1.543909,2.902054 1.800781,4.5273431 0.267911,2.561358 -1.353734,5.54315 -2.998047,7.359375 0.144367,-0.354369 0.21784,-0.934532 0.113282,-1.345703 -0.261392,-1.027923 -0.556211,-1.470287 -1.089844,-0.207031 -0.522222,1.236243 -1.361354,2.377879 -2.263672,3.302734 -1.292605,1.324891 -3.32535,2.440607 -3.845703,2.236329 -0.763311,-0.299659 -0.759031,-2.234635 -0.716797,-3.439454 0.04862,-1.387097 0.300699,-2.791663 0.02344,-4.15625 -0.357322,-1.75865 -1.465054,0.892656 -1.583985,1.839844 -0.241291,1.921679 -0.115113,3.901734 -0.789062,5.730469 -0.376219,1.020857 -1.5278,2.462839 -2.052772,3.374118 -0.631531,1.528749 0.976559,3.095757 2.847656,2.22461 0.938423,-0.790466 1.877814,-2.006566 3.138709,-2.192478 3.571401,-1.167505 7.140353,-2.442012 10.454849,-4.196271 2.480208,-1.312696 3.898868,-4.40544 3.492417,-7.188495 -0.116395,-0.796983 -0.01407,-1.449667 0.669922,-2.224609 0.246152,-0.278882 0.88489,-1.535946 1.097655,-2.025391 0.22115,-0.5087327 0.13939,-1.5988481 -1.140624,-0.7304682 -0.194678,0.1320715 -0.237234,0.1686325 -0.945312,0.6230465 -0.109323,-0.481964 0.815273,-1.2966005 1.554687,-1.4804684 0.572489,-0.1423589 3.163129,-2.1062128 3.012729,-2.6649183 -0.0678,-0.2519045 -1.88115,0.174339 -2.641635,0.2645277 1.293965,-2.7142187 0.493375,-4.7258026 -2.144533,-5.6249998 z m 0.375,0.71484373 c 0.538496,0.22854027 1.15424,0.79218537 1.333984,1.77929687 0.297328,1.6328551 -0.779122,3.487603 -0.626955,3.828125 0.754904,-0.1916349 2.061479,-0.5084177 2.278349,-0.4281024 -0.35093,0.4649285 -0.72896,0.7390437 -1.03811,0.8968524 -0.429639,0.2193144 -1.267664,0.379991 -1.525395,0.5371094 -1.029949,0.8152464 -0.897989,1.4511374 -1.353516,2.9277335 0.230185,0.157343 1.808621,-1.1270839 1.845703,-0.9394525 0.145086,0.7341135 -1.17203,2.3003235 -1.508616,2.4000305 0.02279,-0.290919 -0.474059,-1.027393 -0.688649,-1.351199 -0.337909,-0.6617106 -0.711693,-0.6742508 -1.251953,-0.7871085 0.147093,0.5614195 0.467449,1.3340465 0.593749,1.8457025 0.09857,0.399335 0.07044,0.986533 0.03125,1.25 -0.03919,0.263467 -0.304449,1.369126 -0.646484,1.917969 -1.025665,1.645821 -1.034683,1.972214 -2.386719,3.341797 -0.240945,0.244072 -0.771524,0.691257 -1.068359,0.853515 -0.656485,0.358851 -0.929447,0.577406 -1.546875,0.890625 -0.136816,0.06941 0.736004,-0.0057 0.982422,-0.08398 1.008452,-0.3203 1.350635,-0.406929 2.285156,-0.910156 0.831651,-0.447832 1.656392,-1.106638 2.21875,-1.888672 0.666397,-0.926714 0.854007,-2.143371 0.867188,-3.261719 0.0023,-0.19695 -0.0431,-0.537929 -0.06055,-0.728516 -0.05451,-0.595494 -0.202992,-1.311772 -0.431641,-1.861328 -0.114623,-0.275495 -0.214291,-0.609407 -0.431641,-1.019531 0.407651,0.19925 0.644948,0.784638 0.796876,1.185547 0.0922,0.243307 0.211729,0.678019 0.271484,0.96875 0.06779,0.329801 0.145509,0.692814 0.201172,1.044922 0.314419,1.988911 -0.05782,4.031064 -1.492188,5.398437 -1.297445,1.236844 -3.427266,2.042219 -5.012216,2.829083 -2.510584,1.246403 -5.131585,2.179632 -7.838121,2.927505 -1.188785,0.201396 -2.54057,3.115555 -3.741497,1.992531 -0.01183,-1.355762 1.580533,-3.068003 1.923866,-4.475681 0.188382,-0.772374 0.471226,-7.685811 1.267578,-7.175781 0.08768,0.993881 -0.448871,5.080944 -0.05273,6.888672 0.01911,1.140212 -0.208186,1.622151 -0.974609,2.435546 -0.442035,0.469126 -0.916549,0.964749 0.183594,0.175782 0.146243,-0.104879 1.146451,-1.166147 1.236328,-1.800782 1.191057,0.546043 2.389995,0.01378 3.396484,-0.572265 1.195166,-0.695899 3.135654,-2.970614 3.970703,-5.208985 0.3465,0.108027 0.28232,1.216663 -0.472542,2.666866 -0.754863,1.450203 -2.005959,3.158393 -4.802895,4.085042 -0.553966,0.183533 -0.948281,0.552979 0.105468,0.177734 2.811983,-1.001359 3.738034,-2.417282 5.41211,-4.265625 2.463658,-2.20781 4.150611,-5.245744 3.828125,-8.705078 C 94.233,10.447233 94.18879,9.4326396 93.4746,8.0965473 93.341242,7.8470626 93.026748,7.3352681 92.906309,7.0732532 92.596096,6.3983884 92.188742,5.784561 91.96874,5.3133441 91.785497,4.92086 91.575417,4.0615734 91.701241,3.9984988 c 0.10004,-0.050149 0.67051,0.5844389 0.845629,0.8636735 0.343208,0.5472575 0.814542,1.1475049 1.207269,2.0514055 0.288462,0.6639244 0.462564,1.5564285 0.876716,2.3841417 0.30936,0.6182775 0.477786,0.6255762 0.705078,0.222656 0.74768,-1.3254121 0.0293,-5.7943541 -0.716755,-7.2265246 0.769047,0.037692 1.785073,2.7128267 2.416016,3.6601562 0.261226,0.3922174 0.54504,0.6572824 0.779511,0.6051146 0.372296,-0.082833 0.643958,-0.8358307 0.683379,-1.2379271 0.08706,-0.8880148 -0.05275,-3.9703201 -0.351562,-4.47460937 z M 96.62699,12.813382 c -0.05463,1.166865 -0.243467,2.497782 -0.759765,3.453125 -0.397201,0.73497 -1.505544,1.679323 -2.166016,2.125 -0.27211,0.183616 1.029933,-1.347824 1.44336,-2.050782 0.833297,-1.416871 1.158922,-1.805017 1.482421,-3.527343 z"
       id="path4194"
       inkscape:connector-curvature="0"
       sodipodi:nodetypes="csssssssssccsssssssscccssssscsscccsccsccscccssssscsssssscsssssccsccsscscsssccsssssssscsssccsssc" />
    <path
       style="fill:#5e4337;fill-opacity:1;fill-rule:evenodd;stroke:none;stroke-width:0.1;stroke-linecap:butt;stroke-linejoin:miter;stroke-miterlimit:4;stroke-dasharray:none;stroke-opacity:1"
       d="m 61.884577,23.84361 c -0.502238,0.782476 -0.453293,1.722695 -0.132812,2.740234 l 1.90039,3.269532 c 1.086074,1.189535 2.24346,1.667467 3.447266,1.679687 0.677644,0.812914 1.355559,1.953814 2.033203,2.121094 l 0.08789,1.857422 c -0.952591,2.27523 -2.318626,4.32147 -3.976563,5.65625 -1.51427,1.05145 -2.820097,2.19141 -5.921875,2.5625 -3.682848,0.6981 -7.365979,0.698031 -11.048828,0.707031 -5.050094,0.3179 -11.097513,-1.110389 -17.058594,-2.386719 -2.928795,-0.10782 -5.686344,-0.262433 -8.386718,1.685547 -2.751299,3.229823 -6.600689,4.848244 -8.417969,9.634766 -1.0556,3.943359 1.492522,8.980469 1.070312,13.517578 -1.343868,5.247645 -3.618902,9.890031 -6.6289055,14.054687 l -1.236327,15.291016 -1.15039,1.501953 -0.08789,2.208988 1.767578,-0.88282 1.767578,3.269534 c 2.0102465,0.27456 3.9797125,1.2142 6.0996085,-0.26562 -0.706921,-2.201544 -2.401885,-3.131244 -3.888671,-4.330082 0.01485,-3.12306 -1.317988,-6.246082 0.175781,-9.36914 l 5.214843,-8.396485 8.839844,-9.722656 c -0.8624,3.21144 -1.71606,6.423327 -5.568359,9.634765 l 1.501953,15.291016 -1.060547,3.800778 0.441406,0.88282 1.945313,-1.76758 2.033203,4.330074 c 2.605335,2.15067 4.749129,1.06887 6.894531,0 -1.452565,-1.92084 -3.196896,-3.064704 -4.332031,-5.832029 l -2.386719,-7.779297 c 0.01646,-2.44841 -0.241871,-4.959673 1.238282,-7.070313 3.031762,-1.496529 6.401091,-5.170455 8.980468,-8.050781 -6.87e-4,-0.01235 -0.0098,-0.02478 -0.0098,-0.03711 0,0 7.316964,-0.377391 10.916015,-0.972657 3.132934,-0.518166 9.326207,-3.490233 9.326207,-3.490233 l 0.574219,3.314453 c 0,0 -2.947577,0.821783 -6.097656,1.529297 -0.01308,5.043692 0.79032,10.087153 1.677735,15.130859 -0.100147,2.56326 0.11027,5.126194 -1.679688,7.689453 l -0.08789,0.972657 1.85547,-1.060547 0.443359,4.066408 6.275389,0.79492 -2.476563,-3.888672 -0.707031,-4.595703 c 0.431414,-6.248 0.576167,-12.468575 2.123046,-18.828125 l 0.707031,1.238281 0,2.5625 2.474609,14.84961 0,6.718755 c 0.83958,0.451474 1.157002,-0.49119 1.679688,-0.88477 l 2.296875,4.332034 c 1.653527,1.05428 3.42073,1.72606 5.658203,0.79492 -1.067443,-1.65675 -2.264177,-3.02386 -3.800781,-3.625 l -1.326172,-4.771486 c 0.511486,-6.29156 -0.209612,-11.488053 -0.707031,-16.882813 -0.0859,-2.98923 0.500708,-5.641263 2.296875,-7.689453 l 9.015625,-5.833984 c 3.206252,-3.17595 6.079161,-6.562979 7.072265,-11.136719 0.227312,-2.73868 0.586326,-4.942174 -1.060547,-8.308594 -0.522126,-1.78356 -0.751519,-3.078768 -1.591797,-5.392578 l 0.558594,-3.990234 -0.0039,0.0059 c -0.59645,0.560445 -1.089717,1.464833 -1.5625,2.4375 0.228179,0.972856 0.12438,1.734454 -0.5625,2.125 0.37012,0.442239 0.294741,1.079384 0,1.8125 -0.225367,0.56056 -1.955692,1.021624 -3,0.9375 -0.975121,-0.07855 -1.993807,-0.565087 -2.625,-1.3125 -0.323163,-0.382666 -0.338356,-0.946543 -0.4375,-1.4375 -0.12023,-0.595372 -0.320813,-1.21992 -0.1875,-1.8125 0.149783,-0.66579 0.375,-1.09375 1,-1.625 0.09329,-0.495204 -0.124251,-0.768392 -0.3125,-1.0625 0,0 -1.492616,-0.344628 -2.125,-0.75 -0.80623,-0.516811 -1.737209,-1.141608 -2,-2.0625 -0.269119,-0.94307 -0.222205,-2.380986 0.625,-2.875 0.546473,-0.318654 1.331097,0.152104 1.8125,0.5625 1.857646,1.583641 2.96875,4.171875 2.59375,6.453125 0.12542,2.440151 4.165498,1.31434 4.296875,0.203125 -0.02911,-1.103144 -0.488289,-2.062931 -0.875,-3.046875 0.293532,-0.694636 0.751538,-1.191904 0.859375,-2.109375 0.153701,-0.819296 0.288868,-1.688018 0.5625,-2.1875 0.426452,-0.467648 0.929208,-0.439315 1.4375,-0.375 0.758776,0.407111 0.990385,1.132011 1.203125,1.578125 l 0.273437,1.220703 1.03125,-1.351562 c 1.845789,0.317269 3.306333,-0.715509 4.685547,-2.03125 0.705139,-1.369039 1.503923,-2.684486 1.414063,-4.507813 0.149214,-1.363025 -0.696557,-0.880245 -1.326172,-0.796875 l -4.242188,1.767578 -2.5625,1.857422 -0.443359,-0.707031 c -1.97198,0.426218 -2.568457,-0.644701 -1.943359,-1.767578 l -1.150391,0.08789 c -0.634125,0.369703 -0.649104,1.126617 -2.121094,0.972656 -0.959806,-0.05281 -1.912756,-0.113888 -2.296875,-0.972656 l -0.863281,0.15039 c -0.126149,1.062942 -0.517207,1.468028 -1.789062,1.882813 -0.63418,0.03427 -1.180495,0.377068 -2.033203,-0.353516 -2.255894,-1.138344 -3.695892,-2.64003 -6.894532,-3.359375 z M 19.505671,50.079938 c -2.031211,1.998257 -2.967285,3.660715 -3.125,5.5 -0.282566,3.295312 1.154607,5.475277 3.125,6.78125 0,0 0.875,-2.1875 0.96875,-2.4375 0.09375,-0.25 0.811845,-2.764806 1,-4.1875 0.143461,-1.084751 -0.05974,-2.287407 0.09375,-3.28125 0.139888,-0.905752 0.443529,-2.241173 1.9375,-2.3125 1.045642,-0.04992 -0.695903,5.78499 -1.25,8.53125 -0.555642,2.753917 1.5,7.78125 1.5,7.78125 l -1.125,-1.40625 c -0.545637,0.87944 -1.34901,2.073558 -1.96875,1.9375 -2.137836,-0.469341 -2.636181,-2.07539 -3.125,-3.5625 l -2.21875,-6.75 c -0.443343,-1.348761 -0.01004,-2.763659 1.03125,-4.5 0.938352,-1.564686 2.019256,-1.735475 3.15625,-2.09375 z"
       id="path4211-2-3"
       inkscape:connector-curvature="0"
       sodipodi:nodetypes="ccccccccccccccccccccccccccccccccccccscccccccccccccccccccccccccccccccsssssccsssscccccccccccccccccccccccccscsssssccssssc" />
    <path
       style="opacity:0.31000001;fill:url(#pattern5754);fill-opacity:1;fill-rule:evenodd;stroke:none;stroke-width:0.1;stroke-linecap:butt;stroke-linejoin:miter;stroke-miterlimit:4;stroke-dasharray:none;stroke-opacity:1"
       d="m 62.003906,23.65625 c -0.502238,0.782476 -0.453293,1.722695 -0.132812,2.740234 l 1.90039,3.269532 c 1.086074,1.189535 2.24346,1.667467 3.447266,1.679687 0.677644,0.812914 1.355559,1.953814 2.033203,2.121094 l 0.08789,1.857422 c -0.952591,2.27523 -2.318626,4.32147 -3.976563,5.65625 -1.51427,1.05145 -2.820097,2.19141 -5.921875,2.5625 -3.682848,0.6981 -7.36598,0.698031 -11.048828,0.707031 -5.050094,0.3179 -11.097513,-1.110389 -17.058594,-2.386719 -2.928795,-0.10782 -5.686344,-0.262433 -8.386718,1.685547 -2.751299,3.229823 -6.600689,4.848244 -8.417969,9.634766 -1.0556,3.943359 1.492522,8.980469 1.070312,13.517578 -1.343868,5.247645 -3.618902,9.890031 -6.6289059,14.054687 L 7.734375,96.046875 6.5839844,97.548828 6.4960938,99.757812 8.2636719,98.875 10.03125,102.14453 c 2.010247,0.27456 3.979713,1.2142 6.099609,-0.26562 -0.706921,-2.201547 -2.401885,-3.131242 -3.888671,-4.330082 0.01485,-3.12306 -1.317988,-6.246082 0.175781,-9.36914 l 5.214843,-8.396485 8.839844,-9.722656 c -0.8624,3.21144 -1.71606,6.423327 -5.568359,9.634765 l 1.501953,15.291016 -1.060547,3.800781 0.441406,0.882813 1.945313,-1.767578 2.033203,4.330076 c 2.605335,2.15067 4.749129,1.06887 6.894531,0 -1.452565,-1.92084 -3.196896,-3.064709 -4.332031,-5.832029 l -2.386719,-7.779297 c 0.01646,-2.44841 -0.241871,-4.959673 1.238282,-7.070313 3.031762,-1.496529 6.401091,-5.170455 8.980468,-8.050781 -6.87e-4,-0.01235 -0.0098,-0.02478 -0.0098,-0.03711 0,0 7.316964,-0.377391 10.916015,-0.972657 C 50.199305,71.972067 56.392578,69 56.392578,69 l 0.574219,3.314453 c 0,0 -2.947577,0.821783 -6.097656,1.529297 -0.01308,5.043692 0.790319,10.087153 1.677734,15.130859 -0.100147,2.56326 0.11027,5.126194 -1.679687,7.689453 l -0.08789,0.972657 1.855469,-1.060547 0.443359,4.066408 6.275391,0.79492 -2.476563,-3.888672 -0.707031,-4.595703 C 56.601337,86.705125 56.74609,80.48455 58.292969,74.125 L 59,75.363281 l 0,2.5625 2.474609,14.84961 0,6.71875 c 0.83958,0.45147 1.157002,-0.491186 1.679688,-0.884766 l 2.296875,4.332035 c 1.653527,1.05428 3.42073,1.72606 5.658203,0.79492 -1.067443,-1.65675 -2.264177,-3.02386 -3.800781,-3.625 l -1.326172,-4.771486 c 0.511486,-6.29156 -0.209612,-11.488053 -0.707031,-16.882813 -0.0859,-2.98923 0.500708,-5.641263 2.296875,-7.689453 l 9.015625,-5.833984 c 3.206252,-3.17595 6.079161,-6.562979 7.072265,-11.136719 0.227312,-2.73868 0.586326,-4.942174 -1.060547,-8.308594 -0.522126,-1.78356 -0.751519,-3.078768 -1.591797,-5.392578 l 0.558594,-3.990234 -0.0039,0.0059 c -0.59645,0.560445 -1.089717,1.464833 -1.5625,2.4375 0.228179,0.972856 0.12438,1.734454 -0.5625,2.125 0.37012,0.442239 0.294741,1.079384 0,1.8125 -0.225367,0.56056 -1.955692,1.021624 -3,0.9375 -0.975121,-0.07855 -1.993807,-0.565087 -2.625,-1.3125 -0.323163,-0.382666 -0.338356,-0.946543 -0.4375,-1.4375 -0.12023,-0.595372 -0.320813,-1.21992 -0.1875,-1.8125 0.149783,-0.66579 0.375,-1.09375 1,-1.625 0.09329,-0.495204 -0.124251,-0.768392 -0.3125,-1.0625 0,0 -1.492616,-0.344628 -2.125,-0.75 -0.80623,-0.516811 -1.737209,-1.141608 -2,-2.0625 -0.269119,-0.94307 -0.222205,-2.380986 0.625,-2.875 0.546473,-0.318654 1.331097,0.152104 1.8125,0.5625 1.857646,1.583641 2.96875,4.171875 2.59375,6.453125 0.12542,2.440151 4.165498,1.31434 4.296875,0.203125 -0.02911,-1.103144 -0.488289,-2.062931 -0.875,-3.046875 0.293532,-0.694636 0.751538,-1.191904 0.859375,-2.109375 0.153701,-0.819296 0.288868,-1.688018 0.5625,-2.1875 0.426452,-0.467648 0.929208,-0.439315 1.4375,-0.375 0.758776,0.407111 0.990385,1.132011 1.203125,1.578125 l 0.273437,1.220703 1.03125,-1.351562 c 1.845789,0.317269 3.306333,-0.715509 4.685547,-2.03125 0.705139,-1.369039 1.503923,-2.684486 1.414063,-4.507813 0.149214,-1.363025 -0.696557,-0.880245 -1.326172,-0.796875 l -4.242188,1.767578 -2.5625,1.857422 -0.443359,-0.707031 c -1.97198,0.426218 -2.568457,-0.644701 -1.943359,-1.767578 l -1.150391,0.08789 c -0.634125,0.369703 -0.649104,1.126617 -2.121094,0.972656 -0.959806,-0.05281 -1.912756,-0.113888 -2.296875,-0.972656 l -1.144531,0.05664 c 1.809941,1.807592 -0.200576,1.575386 -1.507812,1.976563 -0.63418,0.03427 -1.180495,0.377068 -2.033203,-0.353516 -2.255894,-1.138344 -3.695892,-2.64003 -6.894532,-3.359375 z M 19.625,49.892578 c -2.031211,1.998257 -2.967285,3.660715 -3.125,5.5 -0.282566,3.295312 1.154607,5.475277 3.125,6.78125 0,0 0.875,-2.1875 0.96875,-2.4375 0.09375,-0.25 0.811845,-2.764806 1,-4.1875 0.143461,-1.084751 -0.05974,-2.287407 0.09375,-3.28125 0.139888,-0.905752 0.443529,-2.241173 1.9375,-2.3125 1.045642,-0.04992 -0.695903,5.78499 -1.25,8.53125 -0.555642,2.753917 1.5,7.78125 1.5,7.78125 l -1.125,-1.40625 c -0.545637,0.87944 -1.34901,2.073558 -1.96875,1.9375 -2.137836,-0.469341 -2.636181,-2.07539 -3.125,-3.5625 l -2.21875,-6.75 c -0.443343,-1.348761 -0.01004,-2.763659 1.03125,-4.5 0.938352,-1.564686 2.019256,-1.735475 3.15625,-2.09375 z"
       id="path4211-2"
       inkscape:connector-curvature="0"
       sodipodi:nodetypes="ccccccccccccccccccccccccccccccccccccscccccccccccccccccccccccccccccccsssssccsssscccccccccccccccccccccccccscsssssccssssc" />
    <path
       style="fill:url(#radialGradient5968);fill-opacity:1;fill-rule:evenodd;stroke:none;stroke-width:0.1;stroke-linecap:butt;stroke-linejoin:miter;stroke-miterlimit:4;stroke-dasharray:none;stroke-opacity:1"
       d="m 82.46875,30.408587 c -0.294799,-1.108589 -0.139006,-2.129257 1.265625,-2.90625 0.94095,-0.30259 1.974606,-0.303884 2.765625,-1.09375 0.874588,-0.637779 1.334607,-1.495036 2.84375,-1.796875 0.266242,1.01815 0.129571,2.257903 -0.4375,3.734375 -1.346501,1.818593 -2.757171,3.342014 -4.515625,3.265625 -0.663189,-0.373965 -1.445653,-0.604799 -1.921875,-1.203125 z"
       id="path5960"
       inkscape:connector-curvature="0"
       sodipodi:nodetypes="ccccccc" />
    <path
       style="fill:url(#radialGradient5958);fill-opacity:1;fill-rule:evenodd;stroke:none;stroke-width:0.1;stroke-linecap:butt;stroke-linejoin:miter;stroke-miterlimit:4;stroke-dasharray:none;stroke-opacity:1"
       d="m 62.932504,26.882282 c 1.5173,1.06076 2.387502,4.062815 4.552,3.181981 l 1.414213,-0.883884 c -1.234103,-1.097069 -2.598274,-2.038058 -3.977475,-2.96101 -0.72208,-0.346792 -1.38245,-0.808187 -2.298098,-0.795495 0.07011,0.48142 0.05007,0.949962 0.30936,1.458408 z"
       id="path5950"
       inkscape:connector-curvature="0"
       sodipodi:nodetypes="cccccc" />
    <path
       style="color:#000000;font-style:normal;font-variant:normal;font-weight:normal;font-stretch:normal;font-size:medium;line-height:normal;font-family:sans-serif;text-indent:0;text-align:start;text-decoration:none;text-decoration-line:none;text-decoration-style:solid;text-decoration-color:#000000;letter-spacing:normal;word-spacing:normal;text-transform:none;direction:ltr;block-progression:tb;writing-mode:lr-tb;baseline-shift:baseline;text-anchor:start;white-space:normal;clip-rule:nonzero;display:inline;overflow:visible;visibility:visible;opacity:1;isolation:auto;mix-blend-mode:normal;color-interpolation:sRGB;color-interpolation-filters:linearRGB;solid-color:#000000;solid-opacity:1;fill:#2c1e1e;fill-opacity:1;fill-rule:evenodd;stroke:none;stroke-width:1.77165353;stroke-linecap:butt;stroke-linejoin:miter;stroke-miterlimit:4;stroke-dasharray:none;stroke-dashoffset:0;stroke-opacity:1;color-rendering:auto;image-rendering:auto;shape-rendering:auto;text-rendering:auto;enable-background:accumulate"
       d="m 69.560543,26.935515 c -0.203394,-0.213561 -0.481679,-0.157545 -0.90468,-0.562845 -0.655807,-0.628336 -1.651702,-1.002749 -2.414687,-1.410353 -1.109998,-0.592986 -2.015588,-0.620354 -2.713724,-0.888868 -0.611639,-0.34515 -0.941359,-0.830103 -1.575747,-0.920267 -0.634387,0.108711 -0.566958,0.237903 -0.732332,0.777407 -0.178231,0.581448 -0.04359,1.324978 0.232001,2.526063 0.27559,1.201085 0.922466,1.800709 1.744842,3.339825 0.822376,1.539115 2.157583,2.162819 4.160019,2.387755 0.317382,0.282598 0.499185,0.782008 0.781877,0.929984 0.335973,0.175866 0.350269,0.75555 0.69201,1.058566 0.0676,0.37077 -0.126886,0.873062 0.03638,1.328177 0.233648,0.651284 0.465345,1.207979 0.84716,2.017923 0.197645,1.128369 0.692366,2.20144 1.381841,2.805053 0.288129,0.378651 0.609486,0.870752 1.080273,1.46168 0.21022,0.263867 0.950921,0.607336 1.261214,0.563009 0.04645,0.325153 0.581041,1.043031 0.915382,1.15134 0.691604,0.224044 1.343451,0.566138 2.342582,0.552776 0.99913,-0.01336 1.424611,-0.108561 1.848825,-0.311049 0.424214,-0.202487 1.015392,-0.532484 1.255629,-1.09375 0.129451,-0.302438 0.555432,-0.667122 0.512645,-1.015624 0.308888,-0.113208 0.302469,-0.332415 0.542318,-0.537378 0.488239,-0.417224 0.593433,-1.232925 0.742256,-1.985619 0.148823,-0.752694 0.430451,-1.561277 0.435735,-2.638038 0.0053,-1.076761 0.505406,-1.254961 0.71753,-1.639194 0.122467,-0.221831 0.0052,-1.16459 0.06394,-1.505565 0.391541,-0.329938 0.726671,-0.432263 1.090218,-1.000151 1.669633,-0.134251 3.190956,-0.599417 4.296157,-2.19046 1.105202,-1.591042 1.403232,-2.820048 1.58587,-3.779923 0.275911,-1.450076 0.377374,-2.250357 -0.140772,-2.715591 -0.553159,-0.195204 -1.630077,0.14174 -2.471011,0.537783 -0.458283,0.266221 -1.408928,0.515044 -1.626977,0.655262 -1.615756,0.328756 -3.348178,1.77883 -3.943157,2.254582 -0.512911,0.392094 -0.57583,0.117225 -0.603179,-0.279718 l -0.367368,0.244327 c -0.368459,0.245055 -1.5589,-0.498856 -1.632776,-0.613753 -0.107719,-0.167532 -0.336161,-0.886259 0.163734,-1.325859 l -0.650908,-0.210674 c -0.73968,-0.103177 -0.749518,0.333397 -1.165552,0.728062 -0.37017,0.25054 -1.934199,0.904105 -3.286796,-0.07617 -0.410741,-0.208177 -0.217159,-0.263405 -0.871871,-0.694859 L 72.6468,25.03269 c 0.204646,0.138656 -0.241805,0.38001 -0.232412,0.861265 0.01212,0.621124 -0.130346,0.720829 -0.457031,0.922273 -0.326685,0.201444 -0.777107,0.210904 -1.22423,0.361084 -0.447123,0.15018 -1.091438,-0.349425 -1.172584,-0.241797 z m 7.199693,14.719559 c 0.671348,0.08452 1.876629,-0.584398 2.457431,-0.648452 0.117473,0.391217 -0.406353,1.197411 -0.95922,1.541946 -0.125523,0.01682 -0.893689,-0.06816 -1.525599,-0.03103 -0.54611,0.03209 -1.322686,0.19329 -1.444168,0.19134 -0.262051,-0.0043 -1.004075,-0.248162 -1.098195,-1.130023 -0.51473,0.682325 -2.763091,-1.588874 -3.293758,-3.648439 -0.05006,-0.194304 -0.915036,-1.563676 -1.098801,-2.326477 l -0.242022,-1.959386 c 0.01218,-0.16682 -0.413187,-0.543064 -0.928672,-1.176102 -0.251062,-0.308316 -0.453131,-0.973033 -0.641799,-1.161188 -0.168861,0.08856 -0.469898,-0.196098 -0.69759,-0.460522 -1.608117,-0.113357 -2.472629,-0.641003 -3.168512,-1.931942 -0.695883,-1.29094 -1.944289,-1.822461 -2.146782,-3.039246 -0.06002,-0.360649 -0.123398,-1.299424 -0.03584,-1.408758 0.304742,-0.380541 0.783126,0.19653 1.161271,0.278316 0.710074,0.15358 1.563501,0.491462 2.256766,0.859504 0.377532,0.200425 1.592783,0.770255 2.205865,1.357682 0.613083,0.587427 1.322573,0.800897 1.322573,0.800897 0.279474,0.190161 0.762816,0.404749 0.762816,0.404749 0.567645,-0.05504 0.762077,0.08755 1.494621,-0.191576 0.385732,-0.14698 0.698946,-0.370891 1.023827,-0.587243 0.516586,-0.344016 0.746587,-1.454364 0.682093,-1.515376 0.689496,0.129281 0.767419,0.624255 1.691594,0.770245 0.924175,0.14599 1.229208,0.107342 2.212832,0.138542 0.785487,-0.196652 1.032052,-0.715555 1.317573,-0.856836 0.09009,0.683414 0.604686,1.306124 0.909713,1.437571 0.698483,0.301001 0.871596,0.207852 1.640623,0.148228 0.298873,0.28864 0.147129,0.495493 0.335548,0.71874 0.437931,0.02625 0.651683,0.05383 0.84674,-0.10207 1.675355,-1.358473 2.401359,-2.001348 3.578043,-2.283777 1.176683,-0.28243 1.599759,-0.623389 1.954901,-0.829695 0.355143,-0.206306 0.904925,-0.364501 1.262008,-0.356289 0.357084,0.0082 0.353982,1.248278 0.29841,1.521993 -0.217218,1.069879 -0.760823,1.784505 -1.274692,2.518824 -1.491471,2.131313 -2.958662,2.12564 -4.16882,2.101395 l -0.435547,-0.0078 -0.273437,0.339844 c -0.44377,0.553763 -0.107456,1.08752 -0.715857,1.122412 -0.14029,0.238026 -0.17288,0.440152 -0.471042,0.730802 l -0.01733,1.004975 c -0.0062,0.358112 -0.307814,-0.01536 -0.416212,1.380492 0.164883,1.623593 -0.276354,2.885251 -0.642443,3.680801 -0.201818,0.522736 0.0074,1.163771 -0.873438,1.373132 -0.15538,0.157816 -0.758983,0.234094 -1.377496,0.39467 -0.618514,0.160576 -0.57833,0.358405 -1.624929,0.244036 -0.765176,-0.08362 -0.961489,0.0014 -1.646364,-0.06061 -0.328216,-0.0297 -1.101543,-0.148694 -1.268726,-0.295613 -0.167184,-0.14692 -0.395793,-1.200647 -0.312983,-1.556689 0.161888,-0.696036 0.05651,-1.237457 1.085465,-2.04046 -0.256551,-1.247086 0.109721,-1.667808 -0.25712,-2.21766 -0.366842,-0.549853 -0.731387,-0.454621 -1.005084,-1.41768 -0.273698,-0.963059 -0.224237,-1.385641 -0.592841,-2.226432 -0.05586,-0.127407 -0.58388,-0.797583 -1.019864,-0.986106 -0.435984,-0.188523 -0.846992,-0.15874 -1.420699,0.173634 -0.798525,0.462621 -0.839873,1.661696 -0.764434,1.987889 0.136598,0.59064 0.335963,1.350995 0.663507,1.750627 0.376041,0.458802 1.090965,1.46866 1.919774,1.223402 -0.289363,-0.152065 -0.578726,-0.249134 -0.86809,-0.5668 -0.851714,-0.93502 -1.131056,-1.541066 -1.27028,-2.204523 -0.04648,-0.221502 -0.12083,-1.589997 0.677706,-1.822263 0.673508,-0.195899 1.511855,0.657403 1.511855,0.657403 0.314393,0.419866 0.460381,1.302973 0.581927,2.248589 0.619884,0.775658 0.802205,1.148726 1.12511,1.59422 0.263227,0.36316 0.162547,1.113853 0.274925,1.700368 -0.480486,0.485899 -0.854103,0.867457 -1.03529,1.391904 -0.181187,0.524448 -0.287798,1.892583 0.446361,2.717633 0.999625,0.218165 2.435631,0.427397 3.332098,0.540258 z"
       id="path4169"
       inkscape:connector-curvature="0"
       sodipodi:nodetypes="ccsccscccscsccscscsscssssccsscccccssccccccssscsccsccsscsccssssssccssccccsccccscsscccccscccssscscscssssscsssscscscs" />
    <path
       style="color:#000000;font-style:normal;font-variant:normal;font-weight:normal;font-stretch:normal;font-size:medium;line-height:normal;font-family:sans-serif;text-indent:0;text-align:start;text-decoration:none;text-decoration-line:none;text-decoration-style:solid;text-decoration-color:#000000;letter-spacing:normal;word-spacing:normal;text-transform:none;direction:ltr;block-progression:tb;writing-mode:lr-tb;baseline-shift:baseline;text-anchor:start;white-space:normal;clip-rule:nonzero;display:inline;overflow:visible;visibility:visible;opacity:1;isolation:auto;mix-blend-mode:normal;color-interpolation:sRGB;color-interpolation-filters:linearRGB;solid-color:#000000;solid-opacity:1;fill:#000000;fill-opacity:1;fill-rule:evenodd;stroke:none;stroke-width:0.29055119;stroke-linecap:butt;stroke-linejoin:miter;stroke-miterlimit:4;stroke-dasharray:none;stroke-dashoffset:0;stroke-opacity:1;color-rendering:auto;image-rendering:auto;shape-rendering:auto;text-rendering:auto;enable-background:accumulate"
       d="m 79.241692,30.745117 c -0.126025,0.820753 -0.1997,1.658421 -0.498481,2.441988 -0.184942,0.485019 -0.41682,0.951477 -0.69829,1.387117 0.291338,0.894446 0.610305,1.78613 1.100808,2.594005 0.425522,0.691989 0.876389,1.458377 0.776968,2.304355 0.0058,0.366211 -0.244951,0.775231 -0.271007,1.064047 0.304187,0.278517 0.343519,-0.233656 0.439662,-0.44898 0.492753,-1.019695 0.334285,-2.239274 -0.379097,-2.899637 -0.521651,-0.833784 -0.822057,-1.600123 -1.10113,-2.543558 -0.09951,-0.315509 0.317963,-0.512964 0.44571,-0.809048 0.386557,-0.895939 0.505553,-1.823638 0.62954,-2.784793 0.05548,-0.430071 0.261604,-0.705967 0.735933,-0.871016 0.433321,-0.150779 0.816017,0.0135 1.139504,0.418334 0.308239,0.38575 0.303101,0.706361 0.567134,1.126685 0.112796,-0.439055 0.01624,-0.606683 -0.09459,-0.865326 -0.24576,-0.573521 -0.679096,-1.078716 -1.573115,-1.162527 -0.894018,-0.08381 -1.141785,0.541943 -1.219544,1.048354 z"
       id="path4171"
       inkscape:connector-curvature="0"
       sodipodi:nodetypes="sscccccccsssscsss" />
    <path
       style="color:#000000;font-style:normal;font-variant:normal;font-weight:normal;font-stretch:normal;font-size:medium;line-height:normal;font-family:sans-serif;text-indent:0;text-align:start;text-decoration:none;text-decoration-line:none;text-decoration-style:solid;text-decoration-color:#000000;letter-spacing:normal;word-spacing:normal;text-transform:none;direction:ltr;block-progression:tb;writing-mode:lr-tb;baseline-shift:baseline;text-anchor:start;white-space:normal;clip-rule:nonzero;display:inline;overflow:visible;visibility:visible;opacity:1;isolation:auto;mix-blend-mode:normal;color-interpolation:sRGB;color-interpolation-filters:linearRGB;solid-color:#000000;solid-opacity:1;fill:#2c1e1e;fill-opacity:1;fill-rule:evenodd;stroke:none;stroke-width:0.29055119;stroke-linecap:butt;stroke-linejoin:miter;stroke-miterlimit:4;stroke-dasharray:none;stroke-dashoffset:0;stroke-opacity:1;color-rendering:auto;image-rendering:auto;shape-rendering:auto;text-rendering:auto;enable-background:accumulate"
       d="m 62.695045,25.152076 c -0.365051,-0.104731 -0.385288,0.5079 -0.216659,0.827632 0.08643,0.163872 0.195185,1.132239 0.428342,0.96378 0.236829,-0.07168 0.0015,-0.882673 0.056,-1.071235 0.182921,-0.157153 0.877504,0.292989 1.112344,0.360426 1.142164,0.327984 1.438095,0.846288 2.331596,1.611463 0.368394,0.315484 1.048613,0.951489 1.478226,1.173519 0.946069,0.488941 0.869168,0.405574 1.192609,0.437866 0.841552,0.08402 0.218479,-0.360923 0.143191,-0.418352 l -1.252298,-0.95523 C 66.739992,27.144941 65.598141,26.024325 64.12252,25.490664 63.7721,25.363934 63.066875,25.20115 62.695045,25.152076 Z"
       id="path4173"
       inkscape:connector-curvature="0"
       sodipodi:nodetypes="csccsssssssc" />
    <path
       style="color:#000000;font-style:normal;font-variant:normal;font-weight:normal;font-stretch:normal;font-size:medium;line-height:normal;font-family:sans-serif;text-indent:0;text-align:start;text-decoration:none;text-decoration-line:none;text-decoration-style:solid;text-decoration-color:#000000;letter-spacing:normal;word-spacing:normal;text-transform:none;direction:ltr;block-progression:tb;writing-mode:lr-tb;baseline-shift:baseline;text-anchor:start;white-space:normal;clip-rule:nonzero;display:inline;overflow:visible;visibility:visible;opacity:1;isolation:auto;mix-blend-mode:normal;color-interpolation:sRGB;color-interpolation-filters:linearRGB;solid-color:#000000;solid-opacity:1;fill:#2c1e1e;fill-opacity:1;fill-rule:evenodd;stroke:none;stroke-width:0.29055119;stroke-linecap:butt;stroke-linejoin:miter;stroke-miterlimit:4;stroke-dasharray:none;stroke-dashoffset:0;stroke-opacity:1;color-rendering:auto;image-rendering:auto;shape-rendering:auto;text-rendering:auto;enable-background:accumulate"
       d="m 87.26083,25.267626 c -0.36405,0.302188 -0.816299,0.565277 -1.161206,0.886588 -0.557476,0.331591 -0.948001,0.392981 -1.574436,0.523404 -0.25681,0.04385 -0.519206,0.311878 -0.750879,0.442319 -0.81424,0.355666 -1.532552,1.075909 -1.635221,1.991151 -0.05612,0.445155 0.02989,0.900493 0.210487,1.308834 0.138281,0.142292 0.354152,0.08522 0.240009,-0.177347 -0.305734,-0.680766 0.111963,-1.417951 0.607133,-1.988082 0.344426,-0.411804 0.909234,-0.441255 1.415905,-0.607655 0.758946,-0.130747 1.317016,-0.170828 2.010679,-0.520799 0.303781,-0.187941 0.642616,-0.868837 0.91346,-1.098125 0.379911,-0.336684 0.838371,-0.946632 1.327299,-1.118337 0.0684,-0.04663 0.04335,-0.268793 -0.259617,-0.238309 -0.302966,0.03048 -1.023157,0.344022 -1.343613,0.596358 z"
       id="path4175"
       inkscape:connector-curvature="0"
       sodipodi:nodetypes="cccccccccccccc" />
    <path
       style="fill:#000000;fill-opacity:1;fill-rule:evenodd;stroke:none;stroke-width:0.35433072;stroke-linecap:butt;stroke-linejoin:miter;stroke-miterlimit:4;stroke-dasharray:none;stroke-opacity:1"
       d="m 76.036077,41.090706 0.287261,-0.972271 c -1.143459,0.476561 -1.769106,0.164421 -0.817591,-0.508234 0.475129,-0.335883 -0.343518,-0.625236 -0.574525,-0.950175 -0.791166,-1.112869 0.429374,-1.153287 0.839689,-0.817592 0.741173,0.606384 1.328558,0.898422 2.165515,0.0663 0.480115,-0.477345 1.509139,0.148395 0.640815,0.795495 -0.742143,0.553066 -0.396042,0.632999 0.0221,0.883883 0.470796,0.282477 0.193639,0.965768 -0.524179,0.518912 -0.321732,-0.200285 -0.918186,-0.212137 -0.602772,0.188195 l 0.574525,0.729204 c -0.759315,0.358739 -1.309328,0.17001 -2.010835,0.06629 z"
       id="path4182"
       inkscape:connector-curvature="0"
       sodipodi:nodetypes="ccsssssssscc" />
    <path
       style="fill:#000000;fill-opacity:1;fill-rule:evenodd;stroke:none;stroke-width:0.35433072;stroke-linecap:butt;stroke-linejoin:miter;stroke-miterlimit:4;stroke-dasharray:none;stroke-opacity:1"
       d="m 70.003572,32.273968 c -0.09994,0.174696 -0.0907,0.405166 -0.01753,0.617143 0.0088,0.279961 1.08994,0.235798 0.969669,-0.257787 0.162937,0.417689 -0.441528,0.797183 -0.709069,0.679207 0.323825,0.313468 1.392116,0.287262 1.392116,0.287262 0.155421,0.07 0.43055,0.451276 0.640815,0.795496 -0.01783,-0.396802 0.151978,-0.659582 -0.243068,-1.325825 0,0 -0.578016,-0.942722 -1.038562,-1.104855 -0.32743,-0.11527 -0.822019,0.0081 -0.994371,0.309359 z"
       id="path4190"
       inkscape:connector-curvature="0"
       sodipodi:nodetypes="sccccccss" />
    <path
       style="fill:#000000;fill-opacity:1;fill-rule:evenodd;stroke:none;stroke-width:0.35433072;stroke-linecap:butt;stroke-linejoin:miter;stroke-miterlimit:4;stroke-dasharray:none;stroke-opacity:1"
       d="m 81.604542,31.876221 c -0.251652,-0.349054 -0.932642,-0.301934 -1.259534,-0.0221 -0.453474,0.388198 -0.464039,2.05503 -0.464039,2.05503 0.220887,-0.5962 0.378455,-0.765323 0.486136,-0.795495 0,0 0.632811,0.209787 0.817593,0.08839 -0.193989,-0.01805 -0.728901,-0.306183 -0.596108,-0.986226 0.08916,0.590443 0.673448,0.908886 0.998232,0.551322 0.188835,-0.31414 0.195187,-0.644764 0.01772,-0.890921 z"
       id="path4192"
       inkscape:connector-curvature="0"
       sodipodi:nodetypes="sscccccs" />
    <path
       style="color:#000000;font-style:normal;font-variant:normal;font-weight:normal;font-stretch:normal;font-size:medium;line-height:normal;font-family:sans-serif;text-indent:0;text-align:start;text-decoration:none;text-decoration-line:none;text-decoration-style:solid;text-decoration-color:#000000;letter-spacing:normal;word-spacing:normal;text-transform:none;direction:ltr;block-progression:tb;writing-mode:lr-tb;baseline-shift:baseline;text-anchor:start;white-space:normal;clip-rule:nonzero;display:inline;overflow:visible;visibility:visible;opacity:1;isolation:auto;mix-blend-mode:normal;color-interpolation:sRGB;color-interpolation-filters:linearRGB;solid-color:#000000;solid-opacity:1;fill:#2c1e1e;fill-opacity:1;fill-rule:evenodd;stroke:none;stroke-width:1.77165353;stroke-linecap:butt;stroke-linejoin:miter;stroke-miterlimit:4;stroke-dasharray:none;stroke-dashoffset:0;stroke-opacity:1;color-rendering:auto;image-rendering:auto;shape-rendering:auto;text-rendering:auto;enable-background:accumulate"
       d="m 68.994141,35.839844 c -1.728401,0.944326 -1.767557,4.694322 -7.296875,6.564453 -6.125077,2.071636 -10.746594,1.077806 -16.929688,0.931641 -6.259474,-0.147974 -14.625283,-4.461733 -20.761719,-1.429688 -3.747048,1.851435 -6.302411,5.97072 -9.300781,8.738281 -3.260463,4.898088 0.5572,10.651116 -0.185547,15.927735 -0.727549,5.168652 -4.6307662,9.565011 -6.4667966,14.359375 -0.091035,5.306189 -0.2254561,10.361226 -0.8574219,15.330078 -1.0691174,0.81962 -1.3053356,3.505446 -1.046875,3.906251 0.3169942,0.49158 1.2216465,-0.853115 2.1015625,-0.679689 0.4151353,1.344119 0.4673472,2.517019 1.1699219,3.310549 1.2943671,1.46194 4.1908261,1.40094 5.6816401,0.84765 1.09762,-0.40737 2.303029,-1.48462 2.060547,-2.16796 -0.560068,-1.578339 -4.474754,-3.356206 -4.335937,-5.257817 -0.24716,-3.859098 -0.271078,-8.272741 2.287109,-11.617187 2.012683,-2.631281 3.67597,-5.324494 5.88086,-7.802735 l 4.36914,-4.910156 c -0.46657,1.412552 -1.802218,3.569714 -3.173828,5.074219 -1.378216,1.511751 -2.79082,2.37202 -2.322265,3.832031 0.848199,6.454805 1.75658,8.299974 1.943359,14.810547 -0.614503,1.030751 -1.386614,4.096694 -0.414063,4.535158 0.537078,0.24214 2.279972,-1.072316 2.125,-1.431642 0.617213,1.514482 1.523929,4.287952 2.150391,4.746092 1.157412,0.84643 3.178321,1.23108 5.199219,0.69922 1.327203,-0.34929 2.283824,-1.22888 2.109375,-2.0625 -0.178194,-0.85153 -2.85689,-4.044474 -4.080078,-4.845703 -1.579592,-3.65524 -1.513698,-5.620807 -2.240235,-9.798828 -0.703513,-4.04562 2.444874,-6.201821 5.433594,-7.789063 1.946158,-1.03356 2.502191,-5.48824 4.935547,-4.18164 4.398351,0.821728 8.750459,-0.120617 13.109375,-0.84375 -0.28429,4.355392 1.172048,7.765789 1.388672,11.96875 0.156198,3.030568 0.380031,5.611193 -0.511719,8.808593 -0.146997,0.527069 -0.709086,1.428063 -0.681641,2.679688 1.035736,-0.204559 1.49935,-0.164531 2.066407,-0.841797 0.600428,0.829625 -0.199458,2.8967 0.30664,3.81836 0.430198,0.78344 2.179904,1.06625 3.542969,1.36719 1.418753,0.31323 3.886586,0.19125 3.9375,-0.43164 0.139683,-1.70891 -3.477305,-5.116315 -3.425781,-7.615238 0.08297,-4.023979 0.543066,-6.767745 0.771484,-10.855469 0.107321,-1.92059 0.53184,-7.952716 0.818359,-8.220703 -0.269029,3.715806 0.889055,8.988195 1.611329,12.537109 0.679877,3.340595 0.855263,5.453388 1.033203,9.164063 0.04323,0.901432 -0.123299,2.306591 -0.128906,3.060548 0.703549,0.0199 1.452267,-0.101993 2.285156,-0.857423 0.224106,0.16129 0.911979,3.188013 0.783203,4.009763 0.642156,1.24896 1.587694,1.59227 2.814453,1.97656 1.309234,0.41013 3.60719,0.58163 5.566406,-0.41406 0.678193,-0.34466 -2.940866,-3.91153 -4.214844,-4.917966 -1.067368,-2.08689 -0.831334,-3.746349 -1.300781,-6.544922 -0.597428,-3.561522 0.440492,-7.157135 0.01367,-10.759766 -0.531982,-4.490283 -1.319893,-7.912131 2.306641,-11.138672 2.551838,-2.27038 7.157054,-4.694182 9.53125,-7.375 3.564943,-4.025346 6.065117,-8.470994 5.324218,-14.675781 -0.288949,-2.419886 -0.98432,-3.42341 -1.986328,-6.431641 -0.912036,-2.738115 -1.33047,-3.648946 -0.746093,-0.904296 0.675561,3.172917 1.198619,3.738584 1.730468,7.02539 0.554385,3.426077 -0.744053,6.778872 -2.908203,9.462891 -2.824537,3.503044 -5.277984,6.802004 -9.61914,8.46875 -5.378767,2.065127 -6.667641,8.842878 -6.308594,13.917969 0.245768,3.473901 1.130891,6.512241 0.707031,10.21875 -0.39999,3.497775 0.132394,6.008652 1.875,9.154294 -0.12064,0.0605 1.500563,0.97154 1.691406,1.71875 0.09929,0.38874 -1.313507,0.51931 -2.435547,0.21289 -0.890405,-0.39223 -2.062179,-3.359003 -2.757812,-4.183591 -0.209113,-0.24788 -1.035781,1.183035 -1.228516,0.927735 -0.220436,-0.29198 -0.08354,-1.489485 -0.06641,-1.833985 0.122396,-2.46177 0.597739,-3.394614 -0.01172,-6.277343 -0.583936,-2.762021 -0.826171,-6.843856 -1.705078,-10.025391 -0.510525,-1.84804 -0.488326,-4.362577 -1.21875,-6.109375 -0.730423,-1.746797 -1.716817,-3.582558 -1.935547,-5.376953 -0.174959,-1.435313 -0.351104,-2.683475 0.0098,-4.412109 0.326901,-1.566218 0.712403,-3.652394 1.380859,-5.105469 1.032389,-2.244185 0.608203,-2.296468 -0.449218,-0.425781 -1.2279,2.172277 -1.846343,4.255453 -2.230469,6.726562 -0.283147,1.821507 -0.03929,3.477262 0.46289,5.060547 -1.421168,0.623973 -2.896214,1.543086 -5.580078,1.859375 l 0.0039,0.03516 c -4.188975,0.662181 -8.469037,1.299567 -12.669922,0.763672 -0.09189,-0.387631 -0.101126,-1.33082 1.136719,-2.990234 1.687465,-2.262163 2.698122,-5.009347 3.130859,-7.462891 0.207857,-1.178517 0.178574,-2.49131 -0.08984,-3.626953 -0.723745,-3.061989 -0.945109,-2.400786 -0.742187,0.300781 0.08006,1.065849 -0.06605,2.993109 -0.164063,3.548828 -0.31382,1.779309 -1.616292,4.220767 -3.242187,6.400391 -1.625896,2.179624 -2.532304,3.261704 -4.400391,4.585937 -1.05351,0.746804 -2.659468,3.286043 -5.138672,4.560547 -2.91178,1.496882 -3.634309,4.68243 -3.320312,7.876953 0.448767,4.565639 1.543568,7.128287 3.578125,11.234375 0.670714,0.952661 2.445997,2.428912 1.851562,3.123042 -0.896403,1.04673 -2.474587,0.53603 -3.642578,0.21875 -1.057562,-0.28729 -2.503532,-2.157713 -2.945312,-4.583979 -0.830578,0.610676 -0.834665,1.101638 -2.291016,1.824219 0.06097,-0.55338 0.493176,-2.589229 1.220703,-3.607422 -0.398942,-3.294039 0.05064,-4.051669 -0.441406,-7.248047 -0.382833,-2.48695 -0.198425,-5.111373 -0.564453,-7.664063 1.757278,-2.482643 3.193313,-4.896707 4.58789,-7.912109 0.781107,-1.688936 1.154805,-2.781348 0.582223,-3.976141 -0.572582,-1.194793 -2.231851,-1.782851 -3.373238,-3.090265 -1.769639,-2.027052 -2.288275,-4.753971 -2.801888,-6.244838 -0.482364,1.321634 0.422689,4.693426 2.251106,6.787807 1.106863,1.267867 2.63449,1.679075 2.933594,3.324218 0.0997,0.548399 -1.197148,1.295849 -1.755859,1.861328 -2.84786,2.882355 -5.348563,6.059071 -7.986328,9.136719 -2.042405,2.383004 -4.070309,4.995058 -4.917969,8.048828 -0.365604,3.175496 -0.100918,6.546647 0.265625,9.632813 0.975556,1.107873 2.363108,1.453059 2.074219,2.292962 -0.16162,0.46989 -1.521897,1.31094 -2.976563,0.99805 -1.6080166,-0.34588 -1.8422885,-2.212444 -2.1660155,-3.148434 -0.1085589,-0.313875 -1.0387791,0.664191 -1.9121094,1.226562 0.060481,-1.369863 0.9543088,-2.277405 1.578125,-2.871093 -0.03201,-1.460982 0.1290635,-2.540108 0.4628907,-4.087891 0.5309623,-3.60429 1.3750302,-7.269934 1.4902342,-10.921875 2.087296,-4.902662 5.535009,-9.424721 6.185547,-14.919922 0.567126,-4.790606 -2.638048,-10.279339 0.01758,-14.777344 3.79639,-3.556056 7.255148,-8.501858 12.921875,-8.658203 6.115198,-0.168718 12.348017,2.484528 18.628906,2.171875 6.125524,-0.304919 10.639342,-0.14108 16.25,-2.52539 2.022597,-0.859525 4.919887,-5.443832 4.738282,-6.841797 z M 56.910156,72.914062 c 0.291505,0.741112 0.619484,1.461329 0.494141,1.960938 -0.601807,2.398754 -0.587179,4.689465 -0.960938,7.369141 -0.421687,3.023295 -0.390976,6.054665 -0.960937,9.013671 -0.313142,1.62571 0.0074,3.340683 0.351562,5.050782 0.306659,1.523874 0.472276,2.114153 1.195313,2.927734 -0.303355,0.382414 -3.001643,1.061172 -3.470703,0.4375 -0.758133,-1.008031 -0.257248,-3.798003 -0.671875,-3.861328 -0.547069,-0.08355 -1.475621,1.580913 -1.714844,1.308594 -0.19438,-0.221272 0.991534,-2.206908 1.09375,-2.472656 1.19333,-3.102531 1.199151,-6.119357 0.732422,-9.332032 -0.576467,-3.968046 -2.148371,-6.729494 -1.376953,-11.001953 2.262016,-0.560532 3.672713,-1.190573 5.289062,-1.400391 z"
       id="path4212"
       inkscape:connector-curvature="0"
       sodipodi:nodetypes="cssscsccscssscsccsccscssscssccssccssssscsscccsscsssssssssssscscscssssscsssccccssssssssscsscccscssscssssccsssccccscsssccsssccssssscc" />
    <path
       style="color:#000000;font-style:normal;font-variant:normal;font-weight:normal;font-stretch:normal;font-size:medium;line-height:normal;font-family:sans-serif;text-indent:0;text-align:start;text-decoration:none;text-decoration-line:none;text-decoration-style:solid;text-decoration-color:#000000;letter-spacing:normal;word-spacing:normal;text-transform:none;direction:ltr;block-progression:tb;writing-mode:lr-tb;baseline-shift:baseline;text-anchor:start;white-space:normal;clip-rule:nonzero;display:inline;overflow:visible;visibility:visible;opacity:1;isolation:auto;mix-blend-mode:normal;color-interpolation:sRGB;color-interpolation-filters:linearRGB;solid-color:#000000;solid-opacity:1;fill:url(#linearGradient5943);fill-opacity:1;fill-rule:evenodd;stroke:none;stroke-width:1.41732287;stroke-linecap:butt;stroke-linejoin:miter;stroke-miterlimit:4;stroke-dasharray:none;stroke-dashoffset:0;stroke-opacity:1;color-rendering:auto;image-rendering:auto;shape-rendering:auto;text-rendering:auto;enable-background:accumulate"
       d="m 19.203125,49.939453 c -1.670731,1.742559 -2.914111,3.404452 -2.986599,5.854539 -0.05313,1.795618 0.418727,3.579218 1.166497,5.20553 0.252904,0.550037 0.798175,0.801133 1.155538,1.240105 0.37107,0.48811 1.182727,0.639966 1.598367,0.123554 0.498007,-0.647266 0.543972,-1.503288 0.731078,-2.27118 0.373463,-1.532706 1.241423,-2.985508 1.165369,-4.592919 -0.05034,-1.063895 0.01474,-2.133778 0.402505,-3.134669 0.219164,-0.565695 -0.008,-1.456838 0.564383,-1.662681 0.935263,-0.499323 1.837275,-1.731689 -0.156513,-0.754466 -0.686828,0.341729 -0.55794,0.414569 -0.99711,1.081106 -0.755115,1.114761 -0.861198,2.153557 -0.834615,3.485969 0.01228,0.615612 -0.170879,1.396666 -0.213553,2.022951 -0.133721,1.962485 -1.020939,3.644423 -1.300425,5.130677 -0.450384,-0.279093 -1.564172,-1.401297 -1.746909,-1.888919 -0.66913,-1.785535 -0.995609,-3.936082 -0.413391,-5.799977 0.445562,-1.42641 0.976788,-2.270837 1.990378,-3.350167 1.528818,-1.334974 0.494421,-0.866203 -0.125,-0.689453 z"
       id="path4220"
       inkscape:connector-curvature="0"
       sodipodi:nodetypes="cssccssscccsscsscc" />
  </g>
</svg>
