<svg id="Réteg_1" data-name="Réteg 1" xmlns="http://www.w3.org/2000/svg" viewBox="0 0 267.09 132.79"><defs><style>.cls-1{fill:#80bca0;}.cls-2{fill:#d6cef4;}.cls-3{fill:#e0dcf4;}.cls-4{fill:#d0a3e5;}.cls-5{fill:#67937f;}.cls-6{fill:#f8b134;}</style></defs><path class="cls-1" d="M282.68,255.77c3.24,3.54,7.05,6.52,10,10.33,1.47,1.87.94,2.6-.89,3.39-21,9-42.43,16.59-65.45,17.71-21.12,1-41.21-3.24-59.39-14.61-3.3-2.06-6.41-4.43-9.6-6.66a49.69,49.69,0,0,1-16.91-22.26c-.52-1.35-1.87-2.58-1.23-4.3,3.45-1.79,7.27-2.31,11-3.11,10,2.09,16.93,3.37,25.25,5.65,11.14,3.05,20.14,5.48,29.83,9.43.32.13.73.61,1.07.22a53.6,53.6,0,0,1-8.2-3c-12.94-5.4-25.67-11.36-39-15.71-1.26-.41-3-.55-3.06-2.52,7.1-3,14.64-3.09,22.12-3.06a258.51,258.51,0,0,1,38.88,3.35c21.1,3.3,41.46,8.85,59.48,20.94C278.63,253,280.65,254.38,282.68,255.77Z" transform="translate(-139.07 -173.09)"/><path class="cls-1" d="M379.74,261.43c3.34,2,7.45,2.47,10.81,5.76-19.19,1.83-37.6,5.48-55.94,9.66,7.68-.5,15.35-1.06,23-1.49,12.64-.71,25.28-1.9,38-.63,1.45.14,2.92,0,4.37.21,5.16.56,7.55,4.8,5.36,9.51-3.08,6.65-8.89,10.32-15.2,13.08a92.51,92.51,0,0,1-29.92,7.15c-7.94.65-15.87,1.41-23.84,1.14-22-.75-43.85-2.42-64.92-9.46a60,60,0,0,1-11.06-4.79c-2.2-1.26-2.34-2.56-1.37-4.66a59.16,59.16,0,0,1,16.17-20.8,69.35,69.35,0,0,1,31.62-12.49,108.23,108.23,0,0,1,24.86-.12c12.28,1.12,24.57,2.34,36.63,5.12C372.14,259.5,375.94,260.49,379.74,261.43Z" transform="translate(-139.07 -173.09)"/><path class="cls-2" d="M320.57,245.94l-10.35,4.37c-1.29,1.55-3.23,1.48-4.92,1.87-8.63,2-17.26,4.28-26.19,1.76-1.74-.49-2.67.22-3.41,1.79-5.19,11-14.27,14.88-25.86,14.15-3.52-.22-4.87-1.32-5.76-4.46l0-.32c-1.68-2-1.55-4.38-1.54-6.74,0-1.74-.48-2.17-2.19-1.38-7.19,3.35-14.86,3.21-22.5,2.6-4.46-.36-9-.48-13.29-2-1.55-.55-3.52-.79-3.93-2.74-.45-2.1,1.29-3.19,2.63-4.36a15.82,15.82,0,0,1,3.09-2.12c-5,.07-9.76-.94-14.53-1.49a1.75,1.75,0,0,1-1.61-1c-2.15-.82-4.35-1.53-6.45-2.48a9,9,0,0,1-5.17-6.06c.38-3.85,3.5-5,6.37-6.16,5.6-2.36,11.59-3.39,18-4.79-4.71-3.63-7.41-8.4-10.61-12.79a16.07,16.07,0,0,1-.89-1.42c-3.76-6.52-2.48-9.38,5-10.43,4-.55,8-1.34,12-.09,2.77.86,2.87-.63,2.46-2.52a41,41,0,0,1-.46-10.07c.18-5.29,2-6.53,7.1-5.26a32,32,0,0,1,11.72,5.68c.08,1.34-1,1.37-1.83,1.46-3.92.45-5.44,3.1-6.27,6.51-.6,2.44-.15,4.94-.6,7.37-2.16,3-1.49,6.06-.23,9.15.71,1.73,1.21,3.47-1.15,4.44-2.78.55-5.6.15-8.39.3-3.88.21-5.15,2.55-3,5.86a19.84,19.84,0,0,0,6.28,6,12.61,12.61,0,0,1,4.93,5.3,13.77,13.77,0,0,0,7.67,6.75c3.66,1.42,7.2,3.15,11,4.33a12,12,0,0,0,1.27.45c11.61,2,23.26,3.3,35,.75a21.22,21.22,0,0,0,9.9-4.81c3.91-3.62,8.65-4.91,13.55-6.22,4.33-1.16,8.65-2.52,11.45-6.49a2,2,0,0,1,2.9-.72c5.28,1.78,9.75,4.64,12.74,9.49C325.53,242.58,324.48,244.4,320.57,245.94Z" transform="translate(-139.07 -173.09)"/><path class="cls-3" d="M219.18,217.77c1.89-.89.85-2.08.44-3.34-1-3.16-3.25-6.41.29-9.45,2-1.6,4.31-1,6.42-.48,2.54.68,3.28-.14,3.63-2.62.55-3.87,1.47-7.73,4.73-10.44,2.72-.6,5.24,1.42,8,.64,2.88,2.62,5.7,5.3,7.74,8.94,2.6-3.54,4.4-7.29,7.52-10.12,5-4.53,9.47-3.66,12,2.66,1.29,3.26,2.58,6.59,1.89,10.16a5.38,5.38,0,0,1,2.11-2.37c7.44-2.23,14.05-.76,17.81,4a9,9,0,0,1,.64,3.16,1.67,1.67,0,0,0,1.2,1c4.1,1.3,4.77,2.24,4.77,6.4,0,6.06-3.38,10.51-7,14.82a3.44,3.44,0,0,1-2.36,1.2c-6,.38-11.19,3.13-16.45,5.63-2.56,1.21-4.27,1-6-1.42-2-2.85-4.15-3.22-7.35-1.72a22,22,0,0,0-7.93,6.09c-2,2.43-3,2.48-5.16.19-6.49-6.84-14.24-10.68-23.82-10.69-3.27,0-5.5-2.42-6.2-6A5.29,5.29,0,0,1,219.18,217.77Z" transform="translate(-139.07 -173.09)"/><path class="cls-4" d="M219.18,217.77c-2.38,2.2-3.14,4.72-1.81,7.82,1.23,2.88,3.33,3.7,6.4,3.69,8.75,0,16,3.7,22,9.92,3,3.17,2.93,3.28,5.49,0a19.57,19.57,0,0,1,9-6.15,5.22,5.22,0,0,1,6.92,2.42c1.11,1.85,1.94,2.75,4.62,1.48,5.39-2.55,10.69-5.78,17-5.7a2.54,2.54,0,0,0,2-1.1c3.57-4.49,7-9,6.71-15.24-.16-3-1.24-4.82-4.43-4.46-1.43.16-1.87-.16-1.62-1.51a3.66,3.66,0,0,1,2.05-2c2.39-.73,4.42-2.17,6.6-3.31.71,3.37,4.12,2.72,6.15,4.13,2,5.16-1.37,8.71-3.74,12.54-.53.85-1.58,1.26-2.1,2.18,3.6-.79,7.68,1.49,9.9,5.48-1.05,1.65,1.18,1.13,1.31,2-.54.1-1.39,0-1.57.32-3.89,6.6-10.93,7.2-17.26,9.06a17,17,0,0,0-6.43,3.23,34.6,34.6,0,0,1-20.91,7.8,109.62,109.62,0,0,1-24.92-1.69,53.91,53.91,0,0,1-17.91-7.24,5.39,5.39,0,0,1-2.25-2c-2.42-5.73-8-8.4-12-12.56a8.07,8.07,0,0,1-2.12-3c-1.38-4-.07-6.07,4.2-6.13C213.34,217.71,216.26,217.76,219.18,217.77Z" transform="translate(-139.07 -173.09)"/><path class="cls-4" d="M300.08,203.57c-.66,2.06-2.47,2.54-4.22,3.21-1.53.58-3,1.4-4.44,2.12,0-1.1,0-2.19,0-3.29.55-3,1.94-5.72,1.84-8.83-.13-3.76-2.09-5.51-5.83-5a10.67,10.67,0,0,0-5.87,3c-2.62,2.43-5,5.1-7.74,7.41l-2.61,3.37c.11-4.69-.4-8.61-2.16-12.28-2.58-5.39-6.1-5.91-10.53-1.82-3.37,3.1-5.24,7.22-8,11-2.26-3.05-4.13-6.38-7.33-8.55-.41-.27-.36-1.23-.52-1.87a55.82,55.82,0,0,1,6.25-14.45c3.76-5.81,9.83-6.13,14-.44,4.52,6.22,7,13.43,9.41,21.09,3.89-3.54,7.59-7,11.43-10.36a54.9,54.9,0,0,1,6.7-5c5-3.15,9.79-.93,11.12,4.83C302.82,193.2,301.19,198.34,300.08,203.57Z" transform="translate(-139.07 -173.09)"/><path class="cls-4" d="M310.29,227.9c-2.94-2.79-6.13-5.15-10.76-5.64,4.13-4.25,7-8.74,6.7-14.56,5.46-.26,10.8.26,15.53,3.28,3.89,2.47,4.22,4.72,1.2,8.23C319.52,223.19,314.82,225.44,310.29,227.9Z" transform="translate(-139.07 -173.09)"/><path class="cls-4" d="M234.69,191.44c-2.11,4.26-4.26,8.48-4.11,13.45,0,1.53-1.06,1.34-2.13,1a21.66,21.66,0,0,0-8.54-.9c0-1.33-.07-2.67-.06-4,0-7,1.45-8.76,9.4-11.53Z" transform="translate(-139.07 -173.09)"/><path class="cls-5" d="M244.08,265.42c2.93,5.27,7.95,4,12.31,3.44,9-1.1,15.49-6,19-14.51.43-1,.56-2.15,2.2-1.65,10.74,3.25,21,.05,31.35-2.28a9.53,9.53,0,0,1,1.32-.11c.6.63,1.56.82,2,1.74,3.65,8.5,10.24,14.38,17.56,19.59a5.66,5.66,0,0,1,2.1,2.08,135.38,135.38,0,0,1-64.54,27.74c-25,3.83-49.7,2.62-73.94-4.89-9.25-2.86-18.16-6.6-26-12.56-2.43-1.85-7.67-5.14-5.11-7,6.27-4.59,14.4-5.45,7.19-3.95,12.44-3.18,25.22-4.2,37.95-5.26C219.64,266.77,231.87,266.19,244.08,265.42Z" transform="translate(-139.07 -173.09)"/><path class="cls-5" d="M190.19,245.83c6.09.53,12.09,1.8,18.91,1.55-2.59,1.9-4.71,3.24-6.57,4.86-2.25,2-2.06,3.21.7,4a70.92,70.92,0,0,0,32.51,1.5,24.68,24.68,0,0,0,5-2c.85-.37,1.37-1.9,2.44-1.14.48.33.38,1.65.35,2.51a39.13,39.13,0,0,0,.57,8c-26-1-52-2.06-77.82-5.42-1.32-.17-3,0-3.26-1.71-.23-1.53,1.26-2.25,2.4-3C173,250.26,181.63,248.09,190.19,245.83Z" transform="translate(-139.07 -173.09)"/><path class="cls-6" d="M243.9,213.39c-.69-2.9-1.78-5.5-1.77-8.31,0-2.44,1.13-2.75,2.93-1.46,2.58,1.85,4.34,4.49,6.59,7.38.18-2.07.3-3.63.45-5.18.1-1,0-2.26,1.13-2.59s1.69.9,2.44,1.51c1.66,1.39,2.08,4.89,4.25,4.53,1.75-.3,3.09-3,4.62-4.66.38-.41.79-.8,1.2-1.18,1.59-1.46,2.55-1.14,2.8,1,.16,1.34.36,2.67.43,4s0,2.65,0,4.68c2.75-2.32,5-4.24,7.28-6.12.77-.62,1.68-1.52,2.65-.86.77.53.46,1.7.31,2.56-.3,1.72-.76,3.42-1.22,5.41,2.93-2.24,5.56-4.29,8.25-6.28.58-.43,1.39-1.14,2.08-.46.35.35.29,1.28.17,1.9-.21,1.06-.12,2.36-1.25,3-7.78,4.33-14.31,10.35-21.3,16-.24-.78-.42-1.31-.57-1.84-1.76-6.35-5.7-7.9-11.26-4.29-1.86,1.21-3.54,3.86-5.25,3.82-1.93-.05-2.19-3.46-3.67-5.14-2.93-3.34-6.76-4.86-10.85-5.62-2.87-.53-3.23-2.52-2.85-4.37.5-2.42,2.74-1.42,4.17-.93C238.4,210.89,241,212.16,243.9,213.39Z" transform="translate(-139.07 -173.09)"/><path class="cls-2" d="M273.78,202.2c2.85-4.48,6.4-8.39,11.18-10.67,5.46-2.61,9.4.16,9.05,6.11-.17,2.81-.26,5.81-2.63,8C286.34,200.22,280.07,201.15,273.78,202.2Z" transform="translate(-139.07 -173.09)"/></svg>