<svg id="Réteg_1" data-name="Réteg 1" xmlns="http://www.w3.org/2000/svg" viewBox="0 0 325.75 139.46"><defs><style>.cls-1{fill:#80bca0;}.cls-2{fill:#f086b6;}.cls-3{fill:#fadbeb;}.cls-4{fill:#f5b4d2;}.cls-5{fill:#f087b6;}.cls-6{fill:#67937f;}.cls-7{fill:#f8b134;}</style></defs><path class="cls-1" d="M405.73,254.84c3.94,3.29,8.4,5.89,12.11,9.5,1.82,1.77,1.37,2.61-.46,3.71-20.91,12.6-42.54,23.7-66.76,28.2-22.21,4.13-44.1,2.51-65-6.9-3.79-1.71-7.42-3.78-11.12-5.68a53,53,0,0,1-21.12-21.14c-.74-1.35-2.35-2.46-1.92-4.37,3.4-2.4,7.37-3.5,11.21-4.88,9.29-.44,18.42,1.14,27.56,2.34,11,1.45,22.11,2.91,32.94,5.69.36.09.87.54,1.17.07a57.52,57.52,0,0,1-9.11-1.94c-14.49-3.86-28.82-8.33-43.61-11-1.39-.25-3.24-.16-3.61-2.23,7.09-4.19,15.06-5.38,23-6.43a277.42,277.42,0,0,1,41.65-2.06c22.83.46,45.18,3.39,66,13.6C401,252.47,403.38,253.67,405.73,254.84Z" transform="translate(-93.25 -176.12)"/><path class="cls-2" d="M262.45,254l-11.06,4.67c-1.37,1.65-3.44,1.57-5.26,2-9.22,2.16-18.44,4.57-28,1.88-1.85-.53-2.85.24-3.64,1.91-5.54,11.7-15.25,15.9-27.64,15.13-3.76-.24-5.2-1.41-6.15-4.77l0-.35c-1.79-2.11-1.66-4.68-1.64-7.2,0-1.85-.52-2.32-2.34-1.47-7.69,3.58-15.89,3.43-24,2.77-4.76-.38-9.61-.51-14.2-2.15-1.66-.59-3.76-.84-4.21-2.93-.47-2.24,1.38-3.4,2.82-4.65a17.39,17.39,0,0,1,3.3-2.27c-5.38.08-10.43-1-15.53-1.59a1.88,1.88,0,0,1-1.72-1.1c-2.3-.88-4.65-1.64-6.89-2.65a9.56,9.56,0,0,1-5.53-6.48c.41-4.11,3.75-5.3,6.81-6.59,6-2.52,12.39-3.62,19.22-5.11-5-3.88-7.93-9-11.34-13.67a15,15,0,0,1-1-1.52c-4-7-2.65-10,5.34-11.14,4.25-.6,8.6-1.43,12.85-.1,2.95.92,3.06-.67,2.63-2.7a44.12,44.12,0,0,1-.5-10.76c.19-5.65,2.13-7,7.59-5.62a34.06,34.06,0,0,1,12.53,6.08c.08,1.43-1.11,1.45-2,1.55-4.19.49-5.81,3.32-6.7,7-.64,2.61-.16,5.28-.65,7.88-2.3,3.2-1.58,6.47-.23,9.77.75,1.86,1.28,3.71-1.24,4.75-3,.58-6,.16-9,.32-4.15.22-5.5,2.73-3.24,6.27a21.24,21.24,0,0,0,6.71,6.43,13.55,13.55,0,0,1,5.27,5.67,14.7,14.7,0,0,0,8.2,7.21c3.91,1.51,7.69,3.36,11.7,4.62a10,10,0,0,0,1.36.48c12.41,2.18,24.86,3.54,37.35.8a22.56,22.56,0,0,0,10.58-5.13c4.18-3.88,9.25-5.25,14.48-6.65,4.63-1.24,9.25-2.7,12.24-6.94a2.14,2.14,0,0,1,3.1-.77c5.64,1.9,10.42,5,13.61,10.15C267.76,250.39,266.64,252.33,262.45,254Z" transform="translate(-93.25 -176.12)"/><path class="cls-3" d="M154.1,223.87c2-1,.9-2.23.46-3.57-1.1-3.38-3.47-6.85.32-10.1,2.16-1.71,4.6-1.12,6.85-.51,2.72.72,3.51-.15,3.89-2.81.58-4.13,1.56-8.25,5-11.15,2.91-.64,5.6,1.52,8.53.68,3.08,2.81,6.09,5.67,8.27,9.56,2.78-3.79,4.71-7.79,8-10.82,5.31-4.84,10.12-3.91,12.79,2.84,1.37,3.49,2.75,7,2,10.87a5.84,5.84,0,0,1,2.26-2.54c8-2.39,15-.81,19,4.23a9.56,9.56,0,0,1,.68,3.38,1.82,1.82,0,0,0,1.29,1.11c4.38,1.39,5.1,2.4,5.1,6.84,0,6.47-3.62,11.23-7.52,15.84a3.68,3.68,0,0,1-2.52,1.29c-6.41.4-12,3.34-17.58,6-2.74,1.3-4.56,1.1-6.4-1.52-2.14-3-4.43-3.44-7.85-1.84a23.62,23.62,0,0,0-8.47,6.51c-2.1,2.6-3.19,2.65-5.52.21-6.94-7.31-15.22-11.42-25.45-11.42-3.5,0-5.88-2.59-6.63-6.44C150.14,227.53,151.28,225.29,154.1,223.87Z" transform="translate(-93.25 -176.12)"/><path class="cls-4" d="M154.1,223.87c-2.55,2.35-3.36,5-1.94,8.36,1.32,3.08,3.56,4,6.84,4,9.35,0,17.11,3.94,23.5,10.59,3.25,3.39,3.13,3.51,5.87,0a20.93,20.93,0,0,1,9.59-6.59c3.08-1.16,5.64-.31,7.39,2.59,1.19,2,2.08,2.94,4.94,1.59,5.76-2.73,11.42-6.18,18.17-6.1a2.73,2.73,0,0,0,2.15-1.18c3.81-4.79,7.52-9.59,7.17-16.28-.17-3.22-1.33-5.15-4.74-4.77-1.53.17-2-.17-1.73-1.61a3.89,3.89,0,0,1,2.19-2.15c2.56-.79,4.73-2.33,7.06-3.55.76,3.61,4.41,2.91,6.57,4.42,2.19,5.52-1.46,9.3-4,13.4-.56.91-1.68,1.35-2.24,2.33,3.84-.84,8.21,1.59,10.58,5.86-1.13,1.76,1.26,1.2,1.4,2.12-.58.11-1.49,0-1.68.35-4.16,7.05-11.68,7.69-18.45,9.68a18.33,18.33,0,0,0-6.87,3.45,36.92,36.92,0,0,1-22.35,8.33,116.54,116.54,0,0,1-26.63-1.8,57.54,57.54,0,0,1-19.14-7.74,5.81,5.81,0,0,1-2.41-2.1c-2.58-6.13-8.53-9-12.83-13.43a8.57,8.57,0,0,1-2.27-3.16c-1.48-4.31-.08-6.49,4.49-6.55C147.85,223.8,151,223.86,154.1,223.87Z" transform="translate(-93.25 -176.12)"/><path class="cls-5" d="M240.56,208.69c-.7,2.2-2.64,2.72-4.51,3.43-1.64.62-3.17,1.51-4.74,2.27,0-1.17,0-2.35-.05-3.52.59-3.16,2.07-6.11,2-9.43-.13-4-2.23-5.9-6.22-5.38a11.4,11.4,0,0,0-6.28,3.25c-2.8,2.59-5.35,5.45-8.27,7.92l-2.8,3.6c.13-5-.42-9.21-2.3-13.12-2.76-5.76-6.52-6.32-11.26-2-3.6,3.32-5.59,7.71-8.5,11.79-2.42-3.26-4.41-6.81-7.84-9.13-.43-.3-.38-1.32-.55-2A59.92,59.92,0,0,1,185.88,181c4-6.21,10.5-6.56,14.94-.47,4.84,6.65,7.5,14.35,10.06,22.54,4.15-3.78,8.11-7.51,12.21-11.08a59.58,59.58,0,0,1,7.16-5.39c5.37-3.37,10.47-1,11.88,5.17C243.48,197.6,241.74,203.1,240.56,208.69Z" transform="translate(-93.25 -176.12)"/><path class="cls-5" d="M251.47,234.7c-3.15-3-6.55-5.51-11.51-6,4.43-4.55,7.45-9.34,7.17-15.56,5.84-.28,11.54.28,16.6,3.5,4.16,2.65,4.51,5,1.28,8.79C261.33,229.66,256.31,232.07,251.47,234.7Z" transform="translate(-93.25 -176.12)"/><path class="cls-4" d="M170.67,195.73c-2.26,4.55-4.55,9.07-4.39,14.38.05,1.63-1.13,1.43-2.28,1a23.26,23.26,0,0,0-9.12-1c0-1.42-.08-2.85-.07-4.28.05-7.53,1.55-9.37,10.05-12.32Z" transform="translate(-93.25 -176.12)"/><path class="cls-6" d="M180.71,274.8c3.13,5.63,8.49,4.23,13.15,3.67,9.63-1.17,16.56-6.38,20.27-15.51.45-1.11.59-2.29,2.35-1.76,11.47,3.47,22.45.05,33.5-2.43a9.48,9.48,0,0,1,1.41-.13c.65.69,1.67.88,2.1,1.87,3.9,9.08,10.95,15.36,18.76,20.93a6.09,6.09,0,0,1,2.25,2.23,144.75,144.75,0,0,1-69,29.65c-26.75,4.09-53.12,2.8-79-5.23-9.89-3.06-19.41-7-27.74-13.42-2.59-2-6-4.15-5.46-7.5.55-3.54,4.78-3.48,7.68-4.22,13.31-3.4,27-4.48,40.57-5.62C154.58,276.24,167.66,275.62,180.71,274.8Z" transform="translate(-93.25 -176.12)"/><path class="cls-6" d="M123.11,253.86c6.51.57,12.93,1.92,20.21,1.66-2.77,2-5,3.45-7,5.19-2.41,2.11-2.21,3.43.74,4.23a75.78,75.78,0,0,0,34.75,1.6,25.47,25.47,0,0,0,5.3-2.11c.91-.4,1.47-2,2.62-1.22.5.36.4,1.76.37,2.68a42.28,42.28,0,0,0,.6,8.56c-27.78-1.11-55.56-2.19-83.17-5.78-1.4-.19-3.22,0-3.49-1.84-.23-1.63,1.36-2.4,2.57-3.15C104.76,258.59,114,256.28,123.11,253.86Z" transform="translate(-93.25 -176.12)"/><path class="cls-7" d="M180.51,219.19c-.74-3.1-1.9-5.88-1.89-8.88,0-2.61,1.21-2.94,3.14-1.56,2.75,2,4.63,4.8,7,7.88.19-2.21.31-3.87.48-5.53.11-1.06,0-2.41,1.2-2.77s1.82,1,2.61,1.62c1.77,1.48,2.23,5.22,4.54,4.83,1.88-.32,3.31-3.22,4.94-5,.41-.44.85-.86,1.29-1.26,1.7-1.57,2.72-1.22,3,1.1.17,1.42.38,2.85.46,4.28s0,2.83,0,5c2.94-2.48,5.34-4.53,7.78-6.54.82-.66,1.79-1.62,2.83-.91.82.56.49,1.81.33,2.72-.32,1.85-.81,3.67-1.3,5.79,3.13-2.39,5.94-4.59,8.82-6.71.62-.46,1.48-1.22,2.22-.49.37.37.31,1.36.18,2-.23,1.14-.13,2.53-1.34,3.2-8.31,4.63-15.29,11.06-22.76,17.14-.26-.83-.45-1.39-.61-2-1.88-6.79-6.09-8.45-12-4.59-2,1.29-3.78,4.13-5.61,4.09-2.07-.05-2.34-3.7-3.93-5.5-3.13-3.56-7.22-5.2-11.59-6-3.07-.57-3.45-2.7-3-4.67.53-2.59,2.92-1.52,4.45-1C174.63,216.51,177.41,217.87,180.51,219.19Z" transform="translate(-93.25 -176.12)"/><path class="cls-4" d="M212.45,207.23c3.05-4.79,6.84-9,12-11.41,5.83-2.78,10,.18,9.67,6.54-.18,3-.28,6.21-2.81,8.51C225.87,205.11,219.17,206.11,212.45,207.23Z" transform="translate(-93.25 -176.12)"/></svg>